<svg width="7e3" height="7e3" version="1.1" viewBox="0 0 1400 1400" xml:space="preserve" xmlns="http://www.w3.org/2000/svg"><defs><style>.cls-12{fill:#fff}</style></defs><g transform="matrix(1.4929 0 0 1.4727 261.67 211.18)"><g transform="matrix(1.7759,0,0,1.7759,-13.145,-23.539)"><path d="m59.56 149.78c1.18-8.59 7.29-14.79 15.33-15.64-12.6-36.12 4.72-73.93 42.07-83.09 24.62-6.04 63.35-4.18 74.55 21.48 19.89 8.49 19.12 41.47 13.15 61.92 8.58 0.58 13.76 6.64 14.92 15.13 2.1 15.49-10.08 35.19-26.37 33.75-3.58 17.05-23.16 28.74-23.45 32.58s0.93 5.83 3.11 8.57l11.31 14.2 20.8 0.31c13.27 0.19 23.64 8.31 30.7 19.89l12.49-46.89 53.57-188.61c1.13-3.97 2.03-6.55 5.64-7.79 3.37-1.15 6.95-0.18 8.91 2.39 2.36 3.09 1.71 6.27 0.77 10.19l-43.71 182.24-28.09 119.87c-2.85 6.94-24.03 5.56-36.26 5.55l-128.42-0.16-35.74-0.26c-4.11-0.03-8.1-2.34-8.07-7.01l0.37-48.99c0.09-11.73 5.79-22.76 13.95-30.58 6.09-5.84 13.66-8.51 21.85-9.68l21.17-0.62 12.31-14.8c1.86-2.24 3.72-7.88 1.15-10.11-9.77-8.5-18.74-17.59-21.98-30.35-16.62 1.38-28.2-17.77-26.04-33.51z" fill="#030304"/><path d="m309.56 335.26c-22.65 2.54-41.39-11.06-45.86-32.73-4.12-19.98 9.27-41.28 29.43-46.62 23.77-6.3 46.21 7.27 51.47 30.75 5.12 22.86-10.58 45.86-35.04 48.6" fill="#030405"/><path d="m187.74 163c0.3 28.5-22.11 52.49-50.93 51.42-23.25-0.86-43.06-20.12-45.11-43.11l0.08-29.02 5.59-15.68c0.26-6.94-0.93-14.28 3.84-19.78 29.87 11.45 45.96 12.37 75.84 0.1 5.37 4.85 4.01 12.06 4.44 18.67l6.06 18.03 0.21 19.37z" fill="#ec9d76"/><path d="m180.73 98.58c-7.51-4.44-32.65 20.05-73.39 0.67-6.73-3.2-12.79-0.27-16.1 6.49-4.41 9-0.41 19.92-6.86 31.22-2.73-9.68-5.27-18.73-4.87-28.32 0.92-21.96 13.98-40.42 34.95-47.53 22.11-7.5 62.1-6.64 69.18 17.75 20.55 6.84 17.99 38.39 11.16 57.13-9.16-11.84 0.64-28.71-14.06-37.41z" fill="#401f13"/><path class="cls-12" d="m77.23 326.82-30.75 0.11 0.22-47.96c1.29-13.31 8.07-24.49 21.09-29.63l9.44 77.49z"/><path class="cls-12" d="m220.26 316.05c-0.93 3.67-1.61 6.89-0.32 10.83l-18.89-0.11 9.55-77.69c10.19 4.84 18.57 13.18 20.34 24.78l-10.69 42.19z"/><path class="cls-12" d="m161.01 281.27-22.14 41.89-22.2-41.75 14.47-5.83c4.82-0.5 9.88 1.8 14.81-0.76z"/><path d="m304.66 59.09c-12.67 49.87-25.7 99.7-39.07 149.49l-4.56-0.29c-0.86-0.24-2.01-0.67-3.11 0.28 14.09-53.92 28.58-107.78 43.48-161.58l-0.83-1.52c0.63-2.29 2.33-1.15 4-0.81 1.77 0.36 3.68 0.68 3.09 3.12-0.97 4-1.24 8.07-3 11.31" fill="#b88866"/><path d="m151.98 236.7c-5.34 3.13-13.64 0.89-19.35-1.17s-13.28-5.64-16.04-11.52c0.08-1.73-0.41-3.56 0.38-5.64 14.07 6.63 30.35 6.6 44.45 0.04l0.08 8.89-9.52 9.41z" fill="#b16e4d"/><path d="m257.92 208.57-1.1-1.75c8.62-32.87 17.44-65.66 26.46-98.39l17.3-62.96c0.8 0.14 1.6-0.39 2.53-0.14l-45.18 163.24z" fill="#d0a685"/><path d="m261.02 208.29c0.48 0.02 3.16 0.38 3.45-0.69l34.65-129.7c1.79-6.71 2.45-13.16 5.54-18.81l-36.13 150.36c-2.77 0.43-5.19-0.51-7.5-1.16z" fill="#926953"/><path d="m204.07 165.12 3.1-10.49 1.79-0.46c1.4-3.33-0.4-6.58-3.91-7.25-3.2-0.61-5.9 2.29-7.97 6.6-2.16-4.51-1.55-10.48 3.46-11.81s10.01 0.25 11.88 6.32c3.54 11.52-4.28 27.08-17.1 29.17 0.25-6.43 2.37-11.82 0.77-17.29 3.5 0.06 3.78 2.45 3.88 4.17 0.08 1.29-2.43 3.36-2.22 4.82 0.39 2.73 3.14 1.63 3.98 0.25 0.72-1.18 1.42-3.11 2.34-4.05z" fill="#d8a084"/><path d="m71.23 154.11c1.35 1.05 2.1 2.8 2.24 5.25 0.8 2.61 1.76 5.13 2.9 7.57 0.81 0.83 0.93 2.22 1.45 2.85 0.76 0.92 2.75 1.11 3.07 0.29 0.27-0.68-0.67-4.84-1.52-8-0.35-1.29 2.65-2.24 2.76-1.2l1.72 16.24c-13.23-2.29-20.93-17.81-16.92-29.68 1.85-5.48 6.51-6.93 10.97-5.7 5.33 1.47 6.69 6.38 4.2 11.62-1.83-3.35-2.52-5.23-4.5-6.13-2.24-1.03-4.62-0.62-6.49 1.27-1.31 1.33-2.43 4.29 0.13 5.61z" fill="#dba488"/><path d="m151.98 236.7-12.93 13.35-20.61-21.14c-1.54-1.58-1.94-2.7-1.84-4.91 9.86 9.07 22.46 13.67 35.39 12.7z" fill="#e2a17a"/><path d="m112.57 244.96c-5.01-0.15-5.29 5.44-6.62 10.01-2.73-3.16-3.34-7.64-4.91-11.43l9.56-11.39c5.82 6.35 11.97 11.23 17.17 18.29-5.3-0.64-9.4-5.3-15.2-5.48" fill="#f9f9f9"/><path d="m172.25 254.68c-1.32-3.48-0.74-9.08-4.88-9.52-6.5-0.69-11.55 4.59-18.02 6.44l18.11-19.61 9.82 11.66c-1.94 3.59-2.21 7.65-5.03 11.04z" fill="#f7f7f6"/><path d="m164.64 273.44c-4.9-0.96-8.9-2.83-13.17-5.07-0.5-3.22-0.45-6.03-0.14-9.18 4.26-1.84 8.06-4.23 12.82-5.34 2.77 6.21 1.42 12.75 0.49 19.6z" fill="#22231f"/><path d="m126.66 268.51-13.02 5.63c-1.61-6.78-2.29-13.38 0.04-20.11 4.87 0.97 8.8 3.4 12.86 5.59z" fill="#242421"/><path d="m82.13 295.97c0.91-0.23 1.31 0.36 1.2 1.74q1.575 2.025 0.99 5.85c9.25 31.39 44.5-2.9 16.08-15.35-2.56 0.14-4.5-0.35-5.84-1.48-1.62 0.08-2.15-0.31-1.6-1.16 10.05-2.69 19.67 3.98 21.15 14.49 1.3 9.18-6.04 18.86-16 19.18-5.77 0.18-10.97-3.28-13.86-7.3-3.44-4.79-3.92-10.81-2.11-15.98z" fill="#927e7d"/><path d="m257.92 208.57c-0.48-1.26-3.27-1.5-2.87-2.9l28.22-97.24z" fill="#a8876e"/><path d="m234.99 312.57 3.82 1.83c0 6.96-3.36 16.62-12.05 13.61-1.86-1.56-2.8-3.19-2.29-5.49l2.7-12.13 7.82 2.19z" fill="#af8064"/><path d="m226.76 328.01c5.8-0.63 9.84-3.43 9.87-9.74 0.61-0.78 0.91-2.36 0.76-3.51-0.12-0.89-1.36-1.56-2.4-2.19 2.98 0.83 5.84 1.01 9.11 2.54-1.71 4.44-1.15 10.22-4.22 13.92s-10 1.59-13.12-1.02" fill="#865a44"/><path d="m308.91 43.41-6.76-1.74 3.67-15.67c2.64 0.25 4.45 0.71 6.54 1.57z" fill="#e8e5ce"/><path d="m141.7 258.4c1.32 0.31 1.73 9.13-0.28 9.91-1.73 0.67-3.96 0.64-5.47 0.18-2.23-0.68-1.93-9.64 0.01-10.09 1.63-0.37 3.82-0.45 5.74 0" fill="#272727"/><path d="m76.36 166.93c-3.38-3.44-5.27-8.05-5.13-12.82l3.04-3.86c10.18 5.11-1.73 9.84 2.1 16.68z" fill="#a8715a"/><path d="m208.96 154.18c-1.64 3.9-1.91 7.88-4.89 10.94 0.67-3.47-1.57-5.12-3.04-7.63s1.43-8.07 4.39-6.79c1.22 0.53 1.25 2.08 1.56 2.66 0.26 0.48 1.39 0.71 1.98 0.82" fill="#a8745a"/><path d="m255.17 221.78c2.27-1.19 4.29-0.06 5.01 1.89 0.63 1.69 0.24 3.74-1.98 4.92-1.16 0.62-3.62 0.29-4.52-1.38-0.77-1.43-0.69-4.28 1.49-5.43" fill="#1b1c1a"/><path d="m252.96 230.97c2.07-0.83 4.21 0.63 4.75 2.01 0.81 2.06-0.07 3.86-1.81 4.69-1.85 0.88-4.15 0.65-4.68-1.3-0.43-1.57-0.46-4.52 1.73-5.4z" fill="#20201f"/><path d="m238.77 287.12c2.24-1.37 4.54-0.06 5.18 1.48 0.75 1.79 0.26 4.09-1.46 5.08-1.26 0.72-4.01 0.16-4.89-1.08-0.97-1.36-0.54-4.44 1.16-5.48z" fill="#1e1f1e"/><path d="m256.85 213.14c1.89-1.18 4.42-0.48 5.34 0.92 0.97 1.49 0.7 3.77-0.97 4.83-1.31 0.84-3.7 0.61-5.07-0.83-0.92-0.97-1.29-3.68 0.7-4.93z" fill="#252523"/><path d="m245.53 259.3c2.13-1.43 4.15-0.11 5.11 1.51 1.08 1.82 0.21 3.34-1.36 4.71-1.39 1.21-3.7 0.61-4.59-0.36-1.45-1.59-1-4.62 0.84-5.86" fill="#1d1d1d"/><path d="m236.47 296.58c1.77-1.07 4.18 0.27 4.94 1.28 1.17 1.55 0.92 4.3-0.92 5.14-1.49 0.69-3.61 0.39-4.77-0.97-1-1.16-1.45-4.13 0.75-5.45" fill="#1f201d"/><path d="m241.09 277.97c2.09-1.21 4.12 0.61 4.85 1.95 0.89 1.65 0 3.76-1.36 4.67-1.76 1.18-3.97 0.32-4.58-1.2-0.69-1.73-1.1-4.15 1.09-5.41z" fill="#212121"/><path d="m247.86 249.86c1.79-0.94 4.53 0.15 5.15 1.35 0.82 1.6-0.17 4.02-1.59 5.03-1.1 0.78-3.95-0.05-4.77-1.11-0.98-1.26-0.51-4.37 1.21-5.27" fill="#222"/><path d="m92.95 285.58c0.41 0.27 1.01 0.52 1.6 1.16-0.42 1.42-1.67 2.45-3.76 3.08l-4.4 4.56q-0.9 3.015-3.06 3.33c-0.77-0.25-1.02-0.89-1.2-1.74 1.88-5.38 5.36-8.92 10.82-10.38z" fill="#a8999c"/><path d="m232.88 296.76c-1.59-1.03-0.66-6.45 1.21-6.76 1.77-0.28 2.36 2.5 2.16 3.56-0.22 1.19-1.77 3.98-3.37 3.2" fill="#313131"/><path d="m243.79 250.45c-1.44-2 0.64-5.9 2.16-7.27 1.95 1.14 1.57 3.31 1.41 4.6-0.14 1.11-1.95 3.59-3.58 2.68z" fill="#333"/><path d="m239.49 268.86c-1.38-0.93-0.28-5.8 1.08-6.65 1.75-0.74 2.56 2.3 2.31 3.63-0.23 1.18-1.78 3.96-3.39 3.02" fill="#373737"/><path d="m237.42 278.01c-1.66-0.48-0.37-5.94 1.31-6.31 1.86-0.41 1.89 2.21 1.92 3.25 0.03 1.1-0.94 3.72-3.23 3.06" fill="#2d2e2e"/><path d="m241.35 260.4c-0.83-3.21 0.84-5.26 1.79-8.01 2.13 0.86 2.3 2.62 1.92 4.36-0.28 1.28-1.48 3.23-3.71 3.65" fill="#383738"/><path d="m230.52 305.54c-1.49-1.03-0.18-5.8 1.43-6.01s2.13 2.66 1.99 3.72-1.96 3.3-3.42 2.29" fill="#323330"/><path d="m248.53 232.1c-0.19-3 0.64-5.39 1.99-7.91 1.88 1.23 1.83 2.7 1.57 4.32-0.2 1.24-0.95 3.02-3.56 3.6z" fill="#333433"/><path d="m235.15 287.4c-0.23-2.01-0.39-6.03 1.38-6.71s2.39 2.75 1.95 3.81c-0.52 1.26-1.6 2.85-3.33 2.91z" fill="#323232"/><path d="m313.08 20.88c0.86 1.15 1.02 2.99-0.14 4.19-0.35 0.35-5.94-0.91-6.22-2.21-0.24-1.13 0.19-2.1 1-2.97 1.86 0.96 3.64 1.29 5.36 1z" fill="#533429"/><path d="m250.63 222.27 2.07-7.15c1.96 1.16 1.98 2.75 1.56 4.31-0.27 1.02-0.97 2.7-3.63 2.85z" fill="#303030"/><path d="m246.16 240.98c0.26-2.54 0.69-4.46 1.6-6.89 1.75 0.83 2.32 2.43 1.82 3.88-0.48 1.38-1.35 2.92-3.42 3.01" fill="#2a2a2a"/><path d="m313.08 20.88c0.16 2.21-1.59 1.81-3.23 1.29-1.15-0.37-2.4-0.39-2.13-2.28 0.84-0.91 1.76-1.33 3.07-1.02 0.81 0.19 1.52 0.99 2.29 2.02z" fill="#9d7f6e"/><path class="cls-12" d="m330.17 314c-10.74 11.1-29.07 7.7-40.21-1.1s-17.93-26.21-9.41-38.56c11.45-12.86 30.29-14.39 43.61-3.81s15.83 29.51 6.01 43.48z"/><path d="m330.17 314c-9.15 13.01-27.09 16.63-40.78 9.18-13.91-7.58-20.76-23.67-15.58-38.71 1.53-4.45 3.94-6.99 6.74-10.13-6.41 16.24 1.4 33.92 16.7 41.41 11.15 5.46 22.84 4.92 32.92-1.74z" fill="#929394"/><path d="m118.76 150.02c2.71 3.75 2.42 9.11-1.39 11.79s-8.88 1.42-10.93-2.89c-1.91-4.02-0.44-8.76 4.63-11.09-5.73-1.53-11.04-1.64-9.52-5.52 0.41-1.06 1.76-2.07 3.22-1.65l20.82 6.01c0.93 1.27-0.13 3.64-1.13 3.78-1.54 0.22-3.26 0.03-5.68-0.42z" fill="#050606"/><path d="m168.13 147.87c4.38 2.75 6.18 6.88 4.2 11.26-1.63 3.61-7.02 5.51-10.91 2.67-3.46-2.53-4-7.1-1.88-11.49-2.44 0.21-4.23 0.25-5.52 0.09-0.99-0.13-1.96-2.29-1.15-3.77l20.89-5.84c1.92-0.54 3.47 0.25 3.7 1.79 0.65 4.2-4 2.84-9.34 5.3z" fill="#040506"/><path d="m153.47 193.02-27.52-0.12c-1.65 0-2.14-1.96-1.81-3.14 0.36-1.31 1.36-1.85 3.19-1.8l26.56 0.61c0.76 1.32 0.7 3.05-0.41 4.46z" fill="#120d0d"/><path d="m83.33 297.71c1.56-5.45 5.72-9.89 11.22-10.97 10.28-2.01 18.24 6.19 18 16.1-0.23 9.53-9.67 17.4-19.5 14.2-7.91-2.57-11.91-11.7-9.72-19.33" fill="#2c0f16"/><path d="m228.22 323.77c-1.24-3.91 0.17-9.03 3.15-12.36 0.83 4.25-0.19 8.66-3.15 12.36" fill="#cfa280"/><path d="m324.48 279.38c-1.59 4.09-7.29 3.23-10.57 1.5-2.89-1.52-6.16-5.46-4.01-9.24 2.01-3.51 6.45-2.53 9.44-0.94 2.78 1.48 6.88 4.19 5.13 8.69z" fill="#414c68"/><path d="m324.37 283.42c0.75-1.1 3.27-0.81 4.02-0.09 0.79 0.77 1.29 2.73 0.51 4-0.67 1.09-2.38 0.99-3.35 0.43-1.17-0.68-2.48-2.44-1.18-4.34" fill="#4a5061"/><path d="m100.28 306.07c0.09 2.17-1.69 1.98-2.16-0.05-1.75 2.77-4.06 0.48-3.08-2.23-1.29 0.16-3.06-1.7-2.38-3.09 2.29-1.56 4.46-2.97 7.6-1.99l2.71-0.67c0.57-0.14 0.27 1.95-0.32 1.84-0.38-0.07-2.03 0.06-2.5 0.6 0.14 1.91 3.39 1.71 5.37 0.83 2.03 1.02 1.55 2.6 0.22 4.41-0.25 0.55-0.9 1.42-2.12 2.15 1.32-2.02-0.56-2.3-1.45-2.14l-1.9 0.33z" fill="#3e2631"/><path d="m102.74 291.97c0.98 0.86 0.49 3.38-0.15 4.39-0.8 1.27-9.3 1.04-10.44-0.18-0.82-0.88-1.98-2.62-0.56-4.51 1.15 1.01 1.58 3.32 3.43 2.94 0.63-2.57 1.13-4.18 2.51-3.92s2.11 4.33 3.1 4.11c0.5-0.11 1.03-1.19 2.1-2.83z" fill="#bb8e80"/><path d="m98.12 306.03c1.21 0.6 1.56 2.06 1.04 4.4l1.28 2.43c-1.22 1.63-2.57 1.74-4.74 1.29-1.45-0.3-1.98-1.97-2.99-2.87-1.21-1.27-0.29-5.8 1.6-6.02-1.54-1.73-1.58-2.15 0.73-1.46 0.17 1.61 1.54 2.2 3.08 2.23" fill="#a3a67e"/><path d="m94.31 305.26c-0.05 2.06-0.31 4.29-1.6 6.02-2.8-2.5-6.43-4.53-4.65-8.26 4.01-1.61 6.1-0.86 6.25 2.24" fill="#ca9268"/><path d="m100.28 306.07c0.87 1 1.62 2.14 1.8 3.38 0.22 1.6-0.89 2.4-1.64 3.4-1.64 0.05-2.56-1.08-2.76-2.26-0.26-1.56 0.3-3.02 0.44-4.57z" fill="#7aa6af"/><path d="m92.66 300.71c1.02 0.86 2.25 1.86 2.38 3.09-0.62 0.23-0.71 0.81-0.73 1.46-0.86-0.61-1.87-2.06-2.75-2.1-1.38-0.06-2.07 1.57-2.73 3.04-0.66-1.06-0.35-2.2-0.77-3.18 1.07-2.26 3.46-1.53 4.6-2.31" fill="#e0c5b0"/></g></g><path d="m72.016 1164.1 1.1589-7.8677q11.009-1.3113 23.757-6.5564-3.3801 16.883-4.9253 27.209l-5.215 36.552q17.094 0 25.689-14.424 8.6917-14.588 8.6917-34.585 0-13.932-6.2773-22.456-6.1807-8.5233-18.542-8.5233-17.48 0-33.318 14.096t-24.723 36.88q-8.7882 22.619-8.7882 45.403 0 6.2287 0.96574 11.638 1.0623 5.2451 2.9938 9.6706 1.1589 2.6224 5.1184 7.2119 4.4424 5.2452 5.5047 7.8678 1.0623 2.4586 1.0623 5.9005 0 3.4422-1.5452 6.0649-1.4486 2.4586-3.5732 2.4586-5.5047 0-11.203-13.604-5.6013-13.605-5.6013-33.602 0-27.537 9.6574-53.271 9.754-25.898 27.524-41.469 17.77-15.571 39.112-15.571 17.383 0 26.365 11.638 9.078 11.638 9.078 28.356 0 15.899-6.0842 29.012-6.0842 12.949-18.446 19.997 8.4985 2.2946 13.424 7.8676 4.9253 5.4092 7.5328 13.768 2.704 8.3594 2.704 19.177 0 17.702-6.1807 33.602-6.0842 15.735-18.059 26.226-11.879 10.326-24.819 10.326-3.7664 0-16.128-1.3114-5.891-0.4917-12.361-0.4917-9.8505 0-17.48 2.6225l1.4486-9.0149q10.14-0.9835 14.39-8.1956 4.3458-7.376 8.1122-32.29l14.293-95.231q0.86917-6.0648 0.86917-9.1789 0-2.4587-1.2555-4.2617-1.1589-1.967-2.9938-1.967-0.77259 0-1.9315 0.3279zm13.231 59.171-4.9253 32.946q-3.7664 25.57-7.243 39.338-2.0281 8.1956-5.215 13.932 8.6917 3.606 14.969 3.606 16.9 0 25.496-17.702 8.6916-17.702 8.6916-39.502 0-10.818-3.2835-18.522-3.1869-7.8675-8.4985-10.982-5.215-3.1142-19.991-3.1142zm101.4-110.31q2.9938 0 4.9253 3.4419 1.9315 3.2782 1.9315 8.5235 0 7.2121-2.9938 12.785-2.8972 5.409-6.567 5.409-2.8972 0-4.8287-3.4421-1.9315-3.4421-1.9315-9.0149 0-7.3761 2.8006-12.457 2.8006-5.2451 6.6636-5.2451zm-38.05 108.51-4.2493-5.5729q9.6574-18.03 17.576-25.57 8.0156-7.7038 13.617-7.7038 3.0904 0 4.7321 2.2948 1.6418 2.2947 1.6418 6.2284 0 4.7535-6.2773 40.322-10.237 58.188-10.237 70.153 0 2.2948 0.67603 3.9339 0.67601 1.4753 1.4486 1.4753 3.0904 0 15.838-20.325l3.7664 6.2285q-13.231 21.144-19.315 27.045-6.0842 5.9008-9.9471 5.9008-3.3801 0-5.4082-3.6062-1.9315-3.6059-1.9315-9.9984 0-20.489 14.486-100.15 0.67602-3.77 0.67602-6.7203 0-3.2781-1.7383-3.2781-1.9315 0-4.4424 2.6225-2.4143 2.6226-10.913 16.719zm84.502 60.319 3.2835 5.9008q-7.5328 14.424-17.866 26.39-10.237 11.802-16.9 11.802-2.9938 0-4.9253-3.9339-1.9315-3.77-1.9315-10.49 0-13.113 5.9876-54.418l10.43-71.956q5.6979-39.01 9.5608-52.287 5.9876-20.161 16.9-31.307 11.009-11.146 23.178-11.146 4.1527 0 6.4705 3.442 2.4144 3.2781 2.4144 8.0315 0 5.2451-2.3178 8.6872-2.3178 3.2783-6.7602 3.2783-2.8972 0-8.2088-1.6392-4.6356-1.3112-8.5951-1.3112-3.9595 0-5.9876 2.7864-2.8006 3.9338-5.1184 16.555-2.2212 12.621-7.3396 49.828l-9.5608 68.678q-7.1465 51.632-7.1465 53.926 0 5.245 2.2212 5.245 2.1246 0 6.1807-4.2616 8.0156-8.5235 16.031-21.8zm47.418 0 3.2835 5.9008q-7.5328 14.424-17.866 26.39-10.237 11.802-16.9 11.802-2.9938 0-4.9252-3.9339-1.9315-3.77-1.9315-10.49 0-13.113 5.9876-54.418l10.43-71.956q5.6979-39.01 9.5608-52.287 5.9876-20.161 16.9-31.307 11.009-11.146 23.178-11.146 4.1527 0 6.4704 3.442 2.4144 3.2781 2.4144 8.0315 0 5.2451-2.3178 8.6872-2.3178 3.2783-6.7602 3.2783-2.8972 0-8.2088-1.6392-4.6355-1.3112-8.5951-1.3112-3.9596 0-5.9876 2.7864-2.8006 3.9338-5.1184 16.555-2.2212 12.621-7.3396 49.828l-9.5608 68.678q-7.1465 51.632-7.1465 53.926 0 5.245 2.2212 5.245 2.1246 0 6.1807-4.2616 8.0156-8.5235 16.031-21.8zm48.384-168.83q2.9938 0 4.9253 3.4419 1.9315 3.2782 1.9315 8.5235 0 7.2121-2.9938 12.785-2.8972 5.409-6.567 5.409-2.8972 0-4.8287-3.4421-1.9315-3.4421-1.9315-9.0149 0-7.3761 2.8006-12.457 2.8006-5.2451 6.6636-5.2451zm-38.05 108.51-4.2492-5.5729q9.6574-18.03 17.576-25.57 8.0156-7.7038 13.617-7.7038 3.0904 0 4.7321 2.2948 1.6418 2.2947 1.6418 6.2284 0 4.7535-6.2773 40.322-10.237 58.188-10.237 70.153 0 2.2948 0.676 3.9339 0.67603 1.4753 1.4486 1.4753 3.0904 0 15.838-20.325l3.7664 6.2285q-13.231 21.144-19.315 27.045-6.0842 5.9008-9.9471 5.9008-3.3801 0-5.4081-3.6062-1.9315-3.6059-1.9315-9.9984 0-20.489 14.486-100.15 0.67602-3.77 0.67602-6.7203 0-3.2781-1.7383-3.2781-1.9315 0-4.4424 2.6225-2.4144 2.6226-10.913 16.719zm110.19-40.814 6.3739-2.2948-7.243 41.469q-4.3458 24.75-8.2088 57.041-2.1246 17.538-2.1246 22.62 0 5.0811 2.4144 5.0811 1.5452 0 4.9252-3.442 5.9876-6.0649 11.492-15.08l3.0904 6.3925q-11.009 17.047-14.1 20.653-6.1807 7.212-11.782 10.654-3.6698 2.2948-7.1465 2.2948-2.5109 0-3.7664-1.9668-1.2554-1.9668-1.2554-5.7368 0-2.4588 0.77259-6.7204l3.863-22.292q-8.3054 16.883-19.798 29.012-7.0499 7.5399-12.941 7.5399-5.6013 0-8.5951-6.7205-4.0561-9.0149-4.0561-23.603 0-17.374 5.4082-38.683 5.5047-21.308 14.679-38.683 9.1745-17.374 19.315-25.57 7.8225-6.2284 20.087-6.2284 3.0904 0 6.2773 0.6557zm-11.975 25.078q-5.215-1.8029-8.7882-1.8029-8.6917 0-15.162 8.1955-6.4704 8.0316-12.072 29.176-5.5047 20.98-5.5047 41.961 0 11.146 2.2212 16.063 2.2212 4.9173 5.7944 4.9173 6.6636 0 14.293-12.129 7.6293-12.293 11.203-35.24zm47.032 115.56h-14.39l6.7602-44.092q4.9253-32.454 8.5951-61.63 0.86916-7.212 0.86916-9.0149 0-3.9339-2.1246-3.9339-1.4486 0-4.4424 3.4421-2.9938 3.2782-10.816 16.555l-2.9938-5.7368q9.2711-16.883 18.446-25.242 9.2711-8.5235 14.196-8.5235 1.7383 0 2.7041 1.4752 1.0623 1.3114 1.0623 3.4422t-1.2555 11.31l-4.1527 29.34q9.754-26.062 22.019-44.583 5.891-8.851 9.8506-8.851 2.8972 0 4.8287 3.278 1.9315 3.1144 1.9315 7.3761 0 4.4256-1.9315 7.5398-1.8349 3.1142-9.3677 7.376-7.1464 4.0976-11.685 9.8344-4.4424 5.737-9.8505 17.538-5.3116 11.801-7.4362 20.653-2.1246 8.6872-6.4704 40.65zm115.79-33.929 2.7041 6.2285q-12.941 18.522-19.218 24.586-8.6916 8.3593-13.714 8.3593-2.3178 0-3.7664-2.2945-1.4486-2.1308-1.4486-4.9174 0-2.7864 1.0623-9.1789l3.3801-19.997q-11.589 21.144-19.315 28.684-7.7259 7.5397-13.907 7.5397-5.1184 0-8.5951-7.5397-3.4767-7.7039-3.4767-22.456 0-23.275 9.3677-53.434 9.4642-30.323 20.957-44.747 11.589-14.588 21.15-14.588 2.1246 0 6.3739 1.1474 4.539-31.962 8.6916-46.55 4.1527-14.752 10.72-25.406 6.567-10.654 14.969-16.391 8.4985-5.9008 15.838-5.9008 3.863 0 6.1807 3.4421 2.3178 3.4422 2.3178 8.6872 0 5.0813-2.1246 8.3593-2.1246 3.1144-5.7944 3.1144-2.4144 0-8.9814-1.6391-6.567-1.6391-8.9814-1.6391-3.3801 0-5.9876 3.606-2.5109 3.4421-4.8287 15.08-1.5452 7.3757-7.0499 47.042l-13.714 99.001q-2.4144 17.538-2.4144 23.275 0 6.2286 2.8006 6.2286 1.7383 0 4.0561-2.1308 3.2835-3.1144 12.748-15.571zm-20.474-84.578q-7.7259-2.9502-10.913-2.9502-6.4705 0-12.651 8.687-6.1807 8.5235-11.975 33.274-5.6979 24.75-5.6979 43.108 0 8.3595 2.6075 13.768 2.7041 5.2451 6.0842 5.2451 4.0561 0 9.2711-6.0647 7.4362-9.015 11.782-21.964 2.6075-8.1955 7.0499-40.158zm159.15-14.424h-5.0218q1.0623-17.21 1.0623-26.062 0-12.621-4.0561-19.833-3.9595-7.3761-10.816-7.3761-10.623 0-18.542 13.113-7.9191 12.949-7.9191 29.176 0 8.6875 2.1246 15.735 2.2212 7.0482 9.6574 19.669 13.617 22.619 17.866 35.404 4.2492 12.785 4.2492 24.914 0 17.866-6.4704 34.421-6.3739 16.555-18.929 27.209-12.458 10.818-26.365 10.818-13.714 0-23.178-12.129-9.3677-12.129-9.3677-25.57 0-7.212 2.4143-11.965 2.511-4.7534 5.6979-4.7534 3.2835 0 5.4082 4.4255 1.352 2.6226 2.7041 11.802 1.5452 11.146 3.7664 16.063 2.2212 5.0813 6.0842 8.1956 3.9595 3.2782 8.5951 3.2782 13.81 0 24.144-15.736 10.333-15.899 10.333-35.076 0-6.5564-1.352-12.949-1.2555-6.5564-4.7321-14.752-2.4143-5.573-10.72-19.669-8.2088-13.768-10.333-18.85-2.9938-7.3759-4.4424-14.752-1.4486-7.5398-1.4486-14.916 0-14.916 5.891-29.996 5.891-15.08 15.259-23.931 9.4642-9.0149 21.439-9.0149 5.9876 0 14.776 3.1143 5.0218 1.6389 8.6916 2.4585-2.1246 10.654-3.2835 20.161-1.1589 9.3429-3.187 37.372zm61.421 97.362 2.0281 9.5066q-22.985 30.651-38.823 30.651-8.402 0-12.265-10.163-3.7664-10.162-3.7664-25.734 0-25.898 8.1122-53.271 8.1122-27.373 19.701-41.961 9.078-11.31 20.474-11.31 7.1465 0 10.816 4.5896 3.6698 4.5893 3.6698 11.146 0 5.0813-1.9315 8.3595-1.9315 3.1142-5.4081 3.1142-3.3801 0-8.6917-5.245-5.5047-5.5728-9.1745-5.5728-4.7321 0-9.4642 7.3757-4.6356 7.212-8.8848 28.192-4.2493 20.981-4.2493 42.125 0 15.571 3.5732 24.095 2.6075 6.5564 7.3396 6.5564 11.299 0 26.944-22.456zm62.097-102.28q9.4642 0 15.742 12.785 6.2773 12.785 6.2773 35.568 0 36.388-15.066 65.4-15.066 28.848-31.869 28.848-10.333 0-16.707-11.474-6.2773-11.474-6.2773-31.307 0-34.421 11.589-63.597 14.583-36.224 36.312-36.224zm-8.2088 12.293q-8.2088 0-15.935 19.997-7.6294 19.833-7.6294 54.91 0 21.308 4.7321 33.601 3.4766 9.0152 9.2711 9.0152 8.1122 0 14.776-17.047 8.4985-22.128 8.4985-54.91 0-24.586-3.9595-35.077-3.863-10.49-9.754-10.49zm57.268 125.55h-14.39l6.7602-44.092q4.9253-32.454 8.5951-61.63 0.86914-7.212 0.86914-9.0149 0-3.9339-2.1246-3.9339-1.4486 0-4.4424 3.4421-2.9938 3.2782-10.816 16.555l-2.9938-5.7368q9.2711-16.883 18.446-25.242 9.2711-8.5235 14.196-8.5235 1.7383 0 2.7041 1.4752 1.0623 1.3114 1.0623 3.4422t-1.2554 11.31l-4.1527 29.34q9.754-26.062 22.019-44.583 5.891-8.851 9.8506-8.851 2.8972 0 4.8287 3.278 1.9315 3.1144 1.9315 7.3761 0 4.4256-1.9315 7.5398-1.8349 3.1142-9.3677 7.376-7.1465 4.0976-11.685 9.8344-4.4424 5.737-9.8505 17.538-5.3115 11.801-7.4362 20.653-2.1246 8.6872-6.4704 40.65zm92.035-41.141 3.1869 7.2122q-23.661 38.191-40.561 38.191-6.8568 0-10.527-7.8676-3.5732-7.8676-3.5732-25.242 0-35.077 12.555-69.826 14.1-39.502 33.704-39.502 6.8568 0 10.43 5.9009 3.6698 5.7368 3.6698 15.899 0 10.654-4.3458 20.98-4.3458 10.326-15.548 21.472-5.6013 5.409-23.95 19.505-0.86915 8.8512-0.86915 16.883 0 11.638 2.1246 16.227 2.2212 4.5894 6.3739 4.5894 3.9595 0 8.6916-3.7699 6.3739-5.0811 18.639-20.653zm-33.801-23.767q15.548-11.802 23.371-25.406 5.3116-9.5066 5.3116-18.85 0-7.0481-2.2212-11.146-2.1246-4.2618-5.6013-4.2618-3.5732 0-6.9533 4.5895-4.539 6.0647-7.6293 18.358-4.4424 18.03-6.2773 36.716zm79.77-44.256q7.8225-14.588 15.355-21.308 7.6294-6.8843 13.424-6.8843 6.7601 0 10.816 9.179 4.0562 9.179 4.0562 27.701 0 26.881-7.4363 52.615-7.4361 25.734-18.446 39.174-10.913 13.44-21.343 13.44-8.8848 0-14.196-8.851-5.3116-8.8511-5.3116-22.947 0-11.31 2.6075-31.471l11.396-86.708q4.1527-31.798 10.43-48.353 6.2773-16.719 16.514-26.553 10.237-9.9987 19.411-9.9987 5.5048 0 8.0158 3.2782 2.6076 3.1143 2.6076 8.5233 0 4.9173-2.3179 8.1955-2.3177 3.2782-6.5669 3.2782-3.1868 0-11.01-2.4587-3.4766-1.1473-6.1807-1.1473-4.8288 0-7.8226 8.851-2.2211 6.8842-6.084 34.913zm19.025-9.9984q-4.7321 0-11.299 9.6705-6.4706 9.6708-12.265 34.257-5.7944 24.422-5.7944 48.025 0 8.8513 3.2835 14.916 3.3801 5.9008 7.8225 5.9008 10.72 0 19.122-28.684 8.4021-28.848 8.4021-57.368 0-12.949-3.1871-21.144-2.2212-5.5729-6.0842-5.5729zm82.571-18.686q9.4643 0 15.742 12.785 6.2774 12.785 6.2774 35.568 0 36.388-15.066 65.4-15.066 28.848-31.869 28.848-10.334 0-16.707-11.474-6.2774-11.474-6.2774-31.307 0-34.421 11.589-63.597 14.583-36.224 36.312-36.224zm-8.2089 12.293q-8.2086 0-15.935 19.997-7.6293 19.833-7.6293 54.91 0 21.308 4.732 33.601 3.4767 9.0152 9.2712 9.0152 8.1122 0 14.776-17.047 8.4986-22.128 8.4986-54.91 0-24.586-3.9597-35.077-3.863-10.49-9.754-10.49zm105.27-15.08 6.3738-2.2948-7.243 41.469q-4.3457 24.75-8.2088 57.041-2.1246 17.538-2.1246 22.62 0 5.0811 2.4144 5.0811 1.5451 0 4.9252-3.442 5.9876-6.0649 11.492-15.08l3.0904 6.3925q-11.009 17.047-14.1 20.653-6.1808 7.212-11.782 10.654-3.6697 2.2948-7.1465 2.2948-2.5109 0-3.7664-1.9668-1.2554-1.9668-1.2554-5.7368 0-2.4588 0.7725-6.7204l3.863-22.292q-8.3053 16.883-19.798 29.012-7.0498 7.5399-12.941 7.5399-5.6015 0-8.5953-6.7205-4.056-9.0149-4.056-23.603 0-17.374 5.4082-38.683 5.5046-21.308 14.679-38.683 9.1746-17.374 19.315-25.57 7.8225-6.2284 20.087-6.2284 3.0904 0 6.2771 0.6557zm-11.975 25.078q-5.2149-1.8029-8.7882-1.8029-8.6917 0-15.162 8.1955-6.4702 8.0316-12.072 29.176-5.5048 20.98-5.5048 41.961 0 11.146 2.2213 16.063 2.2213 4.9173 5.7944 4.9173 6.6637 0 14.293-12.129 7.6292-12.293 11.202-35.24zm47.032 115.56h-14.39l6.7603-44.092q4.9253-32.454 8.5951-61.63 0.8692-7.212 0.8692-9.0149 0-3.9339-2.1248-3.9339-1.4486 0-4.4422 3.4421-2.9938 3.2782-10.816 16.555l-2.9939-5.7368q9.271-16.883 18.446-25.242 9.2711-8.5235 14.196-8.5235 1.7384 0 2.704 1.4752 1.0625 1.3114 1.0625 3.4422t-1.2556 11.31l-4.1527 29.34q9.754-26.062 22.019-44.583 5.891-8.851 9.8505-8.851 2.8973 0 4.8288 3.278 1.9314 3.1144 1.9314 7.3761 0 4.4256-1.9314 7.5398-1.835 3.1142-9.3678 7.376-7.1465 4.0976-11.685 9.8344-4.4425 5.737-9.8506 17.538-5.3116 11.801-7.4362 20.653-2.1247 8.6872-6.4704 40.65zm115.79-33.929 2.7041 6.2285q-12.941 18.522-19.218 24.586-8.6915 8.3593-13.714 8.3593-2.3176 0-3.7662-2.2945-1.4486-2.1308-1.4486-4.9174 0-2.7864 1.0622-9.1789l3.3801-19.997q-11.589 21.144-19.315 28.684-7.7259 7.5397-13.907 7.5397-5.1184 0-8.595-7.5397-3.4768-7.7039-3.4768-22.456 0-23.275 9.3678-53.434 9.4642-30.323 20.956-44.747 11.589-14.588 21.15-14.588 2.1248 0 6.3739 1.1474 4.539-31.962 8.6916-46.55 4.1529-14.752 10.72-25.406 6.567-10.654 14.969-16.391 8.4986-5.9008 15.838-5.9008 3.8629 0 6.1807 3.4421 2.3177 3.4422 2.3177 8.6872 0 5.0813-2.1246 8.3593-2.1244 3.1144-5.7944 3.1144-2.4144 0-8.9813-1.6391-6.5671-1.6391-8.9815-1.6391-3.38 0-5.9876 3.606-2.5109 3.4421-4.8286 15.08-1.5453 7.3757-7.0499 47.042l-13.714 99.001q-2.4142 17.538-2.4142 23.275 0 6.2286 2.8006 6.2286 1.7385 0 4.0562-2.1308 3.2836-3.1144 12.748-15.571zm-20.474-84.578q-7.726-2.9502-10.913-2.9502-6.4707 0-12.651 8.687-6.1808 8.5235-11.975 33.274-5.698 24.75-5.698 43.108 0 8.3595 2.6076 13.768 2.704 5.2451 6.084 5.2451 4.0562 0 9.2712-6.0647 7.4361-9.015 11.782-21.964 2.6075-8.1955 7.05-40.158z" fill="#dab700" stroke-width=".2684" style="white-space:pre" aria-label="Billiard Scoreboard"/></svg>
