<svg width="5e3" height="5e3" version="1.1" viewBox="0 0 1e3 1e3" xml:space="preserve" xmlns="http://www.w3.org/2000/svg"><defs><style>.cls-12{fill:#fff}</style></defs><g transform="matrix(1.2787 0 0 1.2614 133.33 9.6256)"><g transform="matrix(1.7759,0,0,1.7759,-13.145,-23.539)"><path d="m59.56 149.78c1.18-8.59 7.29-14.79 15.33-15.64-12.6-36.12 4.72-73.93 42.07-83.09 24.62-6.04 63.35-4.18 74.55 21.48 19.89 8.49 19.12 41.47 13.15 61.92 8.58 0.58 13.76 6.64 14.92 15.13 2.1 15.49-10.08 35.19-26.37 33.75-3.58 17.05-23.16 28.74-23.45 32.58s0.93 5.83 3.11 8.57l11.31 14.2 20.8 0.31c13.27 0.19 23.64 8.31 30.7 19.89l12.49-46.89 53.57-188.61c1.13-3.97 2.03-6.55 5.64-7.79 3.37-1.15 6.95-0.18 8.91 2.39 2.36 3.09 1.71 6.27 0.77 10.19l-43.71 182.24-28.09 119.87c-2.85 6.94-24.03 5.56-36.26 5.55l-128.42-0.16-35.74-0.26c-4.11-0.03-8.1-2.34-8.07-7.01l0.37-48.99c0.09-11.73 5.79-22.76 13.95-30.58 6.09-5.84 13.66-8.51 21.85-9.68l21.17-0.62 12.31-14.8c1.86-2.24 3.72-7.88 1.15-10.11-9.77-8.5-18.74-17.59-21.98-30.35-16.62 1.38-28.2-17.77-26.04-33.51z" fill="#030304"/><path d="m309.56 335.26c-22.65 2.54-41.39-11.06-45.86-32.73-4.12-19.98 9.27-41.28 29.43-46.62 23.77-6.3 46.21 7.27 51.47 30.75 5.12 22.86-10.58 45.86-35.04 48.6" fill="#030405"/><path d="m187.74 163c0.3 28.5-22.11 52.49-50.93 51.42-23.25-0.86-43.06-20.12-45.11-43.11l0.08-29.02 5.59-15.68c0.26-6.94-0.93-14.28 3.84-19.78 29.87 11.45 45.96 12.37 75.84 0.1 5.37 4.85 4.01 12.06 4.44 18.67l6.06 18.03 0.21 19.37z" fill="#ec9d76"/><path d="m180.73 98.58c-7.51-4.44-32.65 20.05-73.39 0.67-6.73-3.2-12.79-0.27-16.1 6.49-4.41 9-0.41 19.92-6.86 31.22-2.73-9.68-5.27-18.73-4.87-28.32 0.92-21.96 13.98-40.42 34.95-47.53 22.11-7.5 62.1-6.64 69.18 17.75 20.55 6.84 17.99 38.39 11.16 57.13-9.16-11.84 0.64-28.71-14.06-37.41z" fill="#401f13"/><path class="cls-12" d="m77.23 326.82-30.75 0.11 0.22-47.96c1.29-13.31 8.07-24.49 21.09-29.63l9.44 77.49z"/><path class="cls-12" d="m220.26 316.05c-0.93 3.67-1.61 6.89-0.32 10.83l-18.89-0.11 9.55-77.69c10.19 4.84 18.57 13.18 20.34 24.78l-10.69 42.19z"/><path class="cls-12" d="m161.01 281.27-22.14 41.89-22.2-41.75 14.47-5.83c4.82-0.5 9.88 1.8 14.81-0.76z"/><path d="m304.66 59.09c-12.67 49.87-25.7 99.7-39.07 149.49l-4.56-0.29c-0.86-0.24-2.01-0.67-3.11 0.28 14.09-53.92 28.58-107.78 43.48-161.58l-0.83-1.52c0.63-2.29 2.33-1.15 4-0.81 1.77 0.36 3.68 0.68 3.09 3.12-0.97 4-1.24 8.07-3 11.31" fill="#b88866"/><path d="m151.98 236.7c-5.34 3.13-13.64 0.89-19.35-1.17s-13.28-5.64-16.04-11.52c0.08-1.73-0.41-3.56 0.38-5.64 14.07 6.63 30.35 6.6 44.45 0.04l0.08 8.89-9.52 9.41z" fill="#b16e4d"/><path d="m257.92 208.57-1.1-1.75c8.62-32.87 17.44-65.66 26.46-98.39l17.3-62.96c0.8 0.14 1.6-0.39 2.53-0.14l-45.18 163.24z" fill="#d0a685"/><path d="m261.02 208.29c0.48 0.02 3.16 0.38 3.45-0.69l34.65-129.7c1.79-6.71 2.45-13.16 5.54-18.81l-36.13 150.36c-2.77 0.43-5.19-0.51-7.5-1.16z" fill="#926953"/><path d="m204.07 165.12 3.1-10.49 1.79-0.46c1.4-3.33-0.4-6.58-3.91-7.25-3.2-0.61-5.9 2.29-7.97 6.6-2.16-4.51-1.55-10.48 3.46-11.81s10.01 0.25 11.88 6.32c3.54 11.52-4.28 27.08-17.1 29.17 0.25-6.43 2.37-11.82 0.77-17.29 3.5 0.06 3.78 2.45 3.88 4.17 0.08 1.29-2.43 3.36-2.22 4.82 0.39 2.73 3.14 1.63 3.98 0.25 0.72-1.18 1.42-3.11 2.34-4.05z" fill="#d8a084"/><path d="m71.23 154.11c1.35 1.05 2.1 2.8 2.24 5.25 0.8 2.61 1.76 5.13 2.9 7.57 0.81 0.83 0.93 2.22 1.45 2.85 0.76 0.92 2.75 1.11 3.07 0.29 0.27-0.68-0.67-4.84-1.52-8-0.35-1.29 2.65-2.24 2.76-1.2l1.72 16.24c-13.23-2.29-20.93-17.81-16.92-29.68 1.85-5.48 6.51-6.93 10.97-5.7 5.33 1.47 6.69 6.38 4.2 11.62-1.83-3.35-2.52-5.23-4.5-6.13-2.24-1.03-4.62-0.62-6.49 1.27-1.31 1.33-2.43 4.29 0.13 5.61z" fill="#dba488"/><path d="m151.98 236.7-12.93 13.35-20.61-21.14c-1.54-1.58-1.94-2.7-1.84-4.91 9.86 9.07 22.46 13.67 35.39 12.7z" fill="#e2a17a"/><path d="m112.57 244.96c-5.01-0.15-5.29 5.44-6.62 10.01-2.73-3.16-3.34-7.64-4.91-11.43l9.56-11.39c5.82 6.35 11.97 11.23 17.17 18.29-5.3-0.64-9.4-5.3-15.2-5.48" fill="#f9f9f9"/><path d="m172.25 254.68c-1.32-3.48-0.74-9.08-4.88-9.52-6.5-0.69-11.55 4.59-18.02 6.44l18.11-19.61 9.82 11.66c-1.94 3.59-2.21 7.65-5.03 11.04z" fill="#f7f7f6"/><path d="m164.64 273.44c-4.9-0.96-8.9-2.83-13.17-5.07-0.5-3.22-0.45-6.03-0.14-9.18 4.26-1.84 8.06-4.23 12.82-5.34 2.77 6.21 1.42 12.75 0.49 19.6z" fill="#22231f"/><path d="m126.66 268.51-13.02 5.63c-1.61-6.78-2.29-13.38 0.04-20.11 4.87 0.97 8.8 3.4 12.86 5.59z" fill="#242421"/><path d="m82.13 295.97c0.91-0.23 1.31 0.36 1.2 1.74q1.575 2.025 0.99 5.85c9.25 31.39 44.5-2.9 16.08-15.35-2.56 0.14-4.5-0.35-5.84-1.48-1.62 0.08-2.15-0.31-1.6-1.16 10.05-2.69 19.67 3.98 21.15 14.49 1.3 9.18-6.04 18.86-16 19.18-5.77 0.18-10.97-3.28-13.86-7.3-3.44-4.79-3.92-10.81-2.11-15.98z" fill="#927e7d"/><path d="m257.92 208.57c-0.48-1.26-3.27-1.5-2.87-2.9l28.22-97.24z" fill="#a8876e"/><path d="m234.99 312.57 3.82 1.83c0 6.96-3.36 16.62-12.05 13.61-1.86-1.56-2.8-3.19-2.29-5.49l2.7-12.13 7.82 2.19z" fill="#af8064"/><path d="m226.76 328.01c5.8-0.63 9.84-3.43 9.87-9.74 0.61-0.78 0.91-2.36 0.76-3.51-0.12-0.89-1.36-1.56-2.4-2.19 2.98 0.83 5.84 1.01 9.11 2.54-1.71 4.44-1.15 10.22-4.22 13.92s-10 1.59-13.12-1.02" fill="#865a44"/><path d="m308.91 43.41-6.76-1.74 3.67-15.67c2.64 0.25 4.45 0.71 6.54 1.57z" fill="#e8e5ce"/><path d="m141.7 258.4c1.32 0.31 1.73 9.13-0.28 9.91-1.73 0.67-3.96 0.64-5.47 0.18-2.23-0.68-1.93-9.64 0.01-10.09 1.63-0.37 3.82-0.45 5.74 0" fill="#272727"/><path d="m76.36 166.93c-3.38-3.44-5.27-8.05-5.13-12.82l3.04-3.86c10.18 5.11-1.73 9.84 2.1 16.68z" fill="#a8715a"/><path d="m208.96 154.18c-1.64 3.9-1.91 7.88-4.89 10.94 0.67-3.47-1.57-5.12-3.04-7.63s1.43-8.07 4.39-6.79c1.22 0.53 1.25 2.08 1.56 2.66 0.26 0.48 1.39 0.71 1.98 0.82" fill="#a8745a"/><path d="m255.17 221.78c2.27-1.19 4.29-0.06 5.01 1.89 0.63 1.69 0.24 3.74-1.98 4.92-1.16 0.62-3.62 0.29-4.52-1.38-0.77-1.43-0.69-4.28 1.49-5.43" fill="#1b1c1a"/><path d="m252.96 230.97c2.07-0.83 4.21 0.63 4.75 2.01 0.81 2.06-0.07 3.86-1.81 4.69-1.85 0.88-4.15 0.65-4.68-1.3-0.43-1.57-0.46-4.52 1.73-5.4z" fill="#20201f"/><path d="m238.77 287.12c2.24-1.37 4.54-0.06 5.18 1.48 0.75 1.79 0.26 4.09-1.46 5.08-1.26 0.72-4.01 0.16-4.89-1.08-0.97-1.36-0.54-4.44 1.16-5.48z" fill="#1e1f1e"/><path d="m256.85 213.14c1.89-1.18 4.42-0.48 5.34 0.92 0.97 1.49 0.7 3.77-0.97 4.83-1.31 0.84-3.7 0.61-5.07-0.83-0.92-0.97-1.29-3.68 0.7-4.93z" fill="#252523"/><path d="m245.53 259.3c2.13-1.43 4.15-0.11 5.11 1.51 1.08 1.82 0.21 3.34-1.36 4.71-1.39 1.21-3.7 0.61-4.59-0.36-1.45-1.59-1-4.62 0.84-5.86" fill="#1d1d1d"/><path d="m236.47 296.58c1.77-1.07 4.18 0.27 4.94 1.28 1.17 1.55 0.92 4.3-0.92 5.14-1.49 0.69-3.61 0.39-4.77-0.97-1-1.16-1.45-4.13 0.75-5.45" fill="#1f201d"/><path d="m241.09 277.97c2.09-1.21 4.12 0.61 4.85 1.95 0.89 1.65 0 3.76-1.36 4.67-1.76 1.18-3.97 0.32-4.58-1.2-0.69-1.73-1.1-4.15 1.09-5.41z" fill="#212121"/><path d="m247.86 249.86c1.79-0.94 4.53 0.15 5.15 1.35 0.82 1.6-0.17 4.02-1.59 5.03-1.1 0.78-3.95-0.05-4.77-1.11-0.98-1.26-0.51-4.37 1.21-5.27" fill="#222"/><path d="m92.95 285.58c0.41 0.27 1.01 0.52 1.6 1.16-0.42 1.42-1.67 2.45-3.76 3.08l-4.4 4.56q-0.9 3.015-3.06 3.33c-0.77-0.25-1.02-0.89-1.2-1.74 1.88-5.38 5.36-8.92 10.82-10.38z" fill="#a8999c"/><path d="m232.88 296.76c-1.59-1.03-0.66-6.45 1.21-6.76 1.77-0.28 2.36 2.5 2.16 3.56-0.22 1.19-1.77 3.98-3.37 3.2" fill="#313131"/><path d="m243.79 250.45c-1.44-2 0.64-5.9 2.16-7.27 1.95 1.14 1.57 3.31 1.41 4.6-0.14 1.11-1.95 3.59-3.58 2.68z" fill="#333"/><path d="m239.49 268.86c-1.38-0.93-0.28-5.8 1.08-6.65 1.75-0.74 2.56 2.3 2.31 3.63-0.23 1.18-1.78 3.96-3.39 3.02" fill="#373737"/><path d="m237.42 278.01c-1.66-0.48-0.37-5.94 1.31-6.31 1.86-0.41 1.89 2.21 1.92 3.25 0.03 1.1-0.94 3.72-3.23 3.06" fill="#2d2e2e"/><path d="m241.35 260.4c-0.83-3.21 0.84-5.26 1.79-8.01 2.13 0.86 2.3 2.62 1.92 4.36-0.28 1.28-1.48 3.23-3.71 3.65" fill="#383738"/><path d="m230.52 305.54c-1.49-1.03-0.18-5.8 1.43-6.01s2.13 2.66 1.99 3.72-1.96 3.3-3.42 2.29" fill="#323330"/><path d="m248.53 232.1c-0.19-3 0.64-5.39 1.99-7.91 1.88 1.23 1.83 2.7 1.57 4.32-0.2 1.24-0.95 3.02-3.56 3.6z" fill="#333433"/><path d="m235.15 287.4c-0.23-2.01-0.39-6.03 1.38-6.71s2.39 2.75 1.95 3.81c-0.52 1.26-1.6 2.85-3.33 2.91z" fill="#323232"/><path d="m313.08 20.88c0.86 1.15 1.02 2.99-0.14 4.19-0.35 0.35-5.94-0.91-6.22-2.21-0.24-1.13 0.19-2.1 1-2.97 1.86 0.96 3.64 1.29 5.36 1z" fill="#533429"/><path d="m250.63 222.27 2.07-7.15c1.96 1.16 1.98 2.75 1.56 4.31-0.27 1.02-0.97 2.7-3.63 2.85z" fill="#303030"/><path d="m246.16 240.98c0.26-2.54 0.69-4.46 1.6-6.89 1.75 0.83 2.32 2.43 1.82 3.88-0.48 1.38-1.35 2.92-3.42 3.01" fill="#2a2a2a"/><path d="m313.08 20.88c0.16 2.21-1.59 1.81-3.23 1.29-1.15-0.37-2.4-0.39-2.13-2.28 0.84-0.91 1.76-1.33 3.07-1.02 0.81 0.19 1.52 0.99 2.29 2.02z" fill="#9d7f6e"/><path class="cls-12" d="m330.17 314c-10.74 11.1-29.07 7.7-40.21-1.1s-17.93-26.21-9.41-38.56c11.45-12.86 30.29-14.39 43.61-3.81s15.83 29.51 6.01 43.48z"/><path d="m330.17 314c-9.15 13.01-27.09 16.63-40.78 9.18-13.91-7.58-20.76-23.67-15.58-38.71 1.53-4.45 3.94-6.99 6.74-10.13-6.41 16.24 1.4 33.92 16.7 41.41 11.15 5.46 22.84 4.92 32.92-1.74z" fill="#929394"/><path d="m118.76 150.02c2.71 3.75 2.42 9.11-1.39 11.79s-8.88 1.42-10.93-2.89c-1.91-4.02-0.44-8.76 4.63-11.09-5.73-1.53-11.04-1.64-9.52-5.52 0.41-1.06 1.76-2.07 3.22-1.65l20.82 6.01c0.93 1.27-0.13 3.64-1.13 3.78-1.54 0.22-3.26 0.03-5.68-0.42z" fill="#050606"/><path d="m168.13 147.87c4.38 2.75 6.18 6.88 4.2 11.26-1.63 3.61-7.02 5.51-10.91 2.67-3.46-2.53-4-7.1-1.88-11.49-2.44 0.21-4.23 0.25-5.52 0.09-0.99-0.13-1.96-2.29-1.15-3.77l20.89-5.84c1.92-0.54 3.47 0.25 3.7 1.79 0.65 4.2-4 2.84-9.34 5.3z" fill="#040506"/><path d="m153.47 193.02-27.52-0.12c-1.65 0-2.14-1.96-1.81-3.14 0.36-1.31 1.36-1.85 3.19-1.8l26.56 0.61c0.76 1.32 0.7 3.05-0.41 4.46z" fill="#120d0d"/><path d="m83.33 297.71c1.56-5.45 5.72-9.89 11.22-10.97 10.28-2.01 18.24 6.19 18 16.1-0.23 9.53-9.67 17.4-19.5 14.2-7.91-2.57-11.91-11.7-9.72-19.33" fill="#2c0f16"/><path d="m228.22 323.77c-1.24-3.91 0.17-9.03 3.15-12.36 0.83 4.25-0.19 8.66-3.15 12.36" fill="#cfa280"/><path d="m324.48 279.38c-1.59 4.09-7.29 3.23-10.57 1.5-2.89-1.52-6.16-5.46-4.01-9.24 2.01-3.51 6.45-2.53 9.44-0.94 2.78 1.48 6.88 4.19 5.13 8.69z" fill="#414c68"/><path d="m324.37 283.42c0.75-1.1 3.27-0.81 4.02-0.09 0.79 0.77 1.29 2.73 0.51 4-0.67 1.09-2.38 0.99-3.35 0.43-1.17-0.68-2.48-2.44-1.18-4.34" fill="#4a5061"/><path d="m100.28 306.07c0.09 2.17-1.69 1.98-2.16-0.05-1.75 2.77-4.06 0.48-3.08-2.23-1.29 0.16-3.06-1.7-2.38-3.09 2.29-1.56 4.46-2.97 7.6-1.99l2.71-0.67c0.57-0.14 0.27 1.95-0.32 1.84-0.38-0.07-2.03 0.06-2.5 0.6 0.14 1.91 3.39 1.71 5.37 0.83 2.03 1.02 1.55 2.6 0.22 4.41-0.25 0.55-0.9 1.42-2.12 2.15 1.32-2.02-0.56-2.3-1.45-2.14l-1.9 0.33z" fill="#3e2631"/><path d="m102.74 291.97c0.98 0.86 0.49 3.38-0.15 4.39-0.8 1.27-9.3 1.04-10.44-0.18-0.82-0.88-1.98-2.62-0.56-4.51 1.15 1.01 1.58 3.32 3.43 2.94 0.63-2.57 1.13-4.18 2.51-3.92s2.11 4.33 3.1 4.11c0.5-0.11 1.03-1.19 2.1-2.83z" fill="#bb8e80"/><path d="m98.12 306.03c1.21 0.6 1.56 2.06 1.04 4.4l1.28 2.43c-1.22 1.63-2.57 1.74-4.74 1.29-1.45-0.3-1.98-1.97-2.99-2.87-1.21-1.27-0.29-5.8 1.6-6.02-1.54-1.73-1.58-2.15 0.73-1.46 0.17 1.61 1.54 2.2 3.08 2.23" fill="#a3a67e"/><path d="m94.31 305.26c-0.05 2.06-0.31 4.29-1.6 6.02-2.8-2.5-6.43-4.53-4.65-8.26 4.01-1.61 6.1-0.86 6.25 2.24" fill="#ca9268"/><path d="m100.28 306.07c0.87 1 1.62 2.14 1.8 3.38 0.22 1.6-0.89 2.4-1.64 3.4-1.64 0.05-2.56-1.08-2.76-2.26-0.26-1.56 0.3-3.02 0.44-4.57z" fill="#7aa6af"/><path d="m92.66 300.71c1.02 0.86 2.25 1.86 2.38 3.09-0.62 0.23-0.71 0.81-0.73 1.46-0.86-0.61-1.87-2.06-2.75-2.1-1.38-0.06-2.07 1.57-2.73 3.04-0.66-1.06-0.35-2.2-0.77-3.18 1.07-2.26 3.46-1.53 4.6-2.31" fill="#e0c5b0"/></g></g><g transform="matrix(.24482 0 0 .48301 -13.642 -560.55)"><path d="m281.1 2885.8 3.125-12.5q29.687-2.084 64.062-10.417-9.115 26.823-13.281 43.23l-14.063 58.072q46.094 0 69.271-22.917 23.438-23.177 23.438-54.948 0-22.135-16.927-35.677-16.667-13.541-50-13.541-47.136 0-89.844 22.395-42.708 22.396-66.667 58.594-23.698 35.938-23.698 72.136 0 9.895 2.604 18.49 2.865 8.332 8.073 15.364 3.125 4.166 13.802 11.458 11.98 8.333 14.844 12.5 2.865 3.906 2.865 9.375t-4.167 9.635q-3.906 3.907-9.635 3.907-14.844 0-30.209-21.615-15.104-21.614-15.104-53.385 0-43.75 26.042-84.636 26.302-41.145 74.219-65.885t105.47-24.74q46.875 0 71.094 18.49 24.48 18.49 24.48 45.052 0 25.26-16.407 46.094-16.406 20.573-49.74 31.77 22.917 3.646 36.198 12.5 13.282 8.594 20.313 21.876 7.291 13.28 7.291 30.468 0 28.125-16.666 53.386-16.406 25-48.698 41.666-32.031 16.407-66.927 16.407-10.156 0-43.49-2.084-15.885-0.781-33.333-0.781-26.563 0-47.135 4.167l3.906-14.323q27.344-1.563 38.802-13.021 11.719-11.719 21.875-51.302l38.542-151.3q2.343-9.636 2.343-14.583 0-3.907-3.385-6.771-3.125-3.125-8.073-3.125-2.083 0-5.208 0.52m35.677 94.01-13.282 52.344q-10.156 40.625-19.53 62.5-5.47 13.02-14.063 22.135 23.437 5.73 40.364 5.73 45.573 0 68.75-28.126 23.438-28.125 23.438-62.76 0-17.188-8.854-29.427-8.594-12.5-22.917-17.448-14.063-4.948-53.906-4.948m289.2-175.26q8.073 0 13.281 5.468 5.209 5.209 5.209 13.542 0 11.458-8.073 20.313-7.813 8.593-17.709 8.593-7.812 0-13.02-5.468-5.209-5.47-5.209-14.323 0-11.72 7.552-19.792 7.552-8.333 17.969-8.333m-102.6 172.4-11.458-8.854q26.041-28.646 47.395-40.625 21.615-12.24 36.72-12.24 8.332 0 12.76 3.646t4.427 9.896q0 7.552-16.927 64.063-27.605 92.448-27.605 111.46 0 3.646 1.823 6.25 1.823 2.344 3.907 2.344 8.333 0 42.708-32.292l10.156 9.896q-35.677 33.594-52.083 42.969t-26.823 9.375q-9.115 0-14.583-5.73-5.209-5.729-5.209-15.885 0-32.552 39.063-159.11 1.823-5.99 1.823-10.678 0-5.208-4.688-5.208-5.208 0-11.979 4.167-6.51 4.166-29.427 26.562m243.62 95.834 8.854 9.375q-20.312 22.916-48.177 41.927-27.604 18.75-45.572 18.75-8.073 0-13.282-6.25-5.208-5.99-5.208-16.667 0-20.833 16.146-86.458l28.125-114.32q15.364-61.98 25.781-83.073 16.146-32.031 45.573-49.74 29.687-17.708 62.5-17.708 11.198 0 17.448 5.469 6.51 5.208 6.51 12.76 0 8.334-6.25 13.802-6.25 5.209-18.229 5.209-7.812 0-22.135-2.605-12.5-2.083-23.177-2.083-10.678 0-16.146 4.427-7.552 6.25-13.802 26.302-5.99 20.052-19.792 79.167l-25.781 109.11q-19.271 82.032-19.271 85.677 0 8.334 5.99 8.334 5.729 0 16.666-6.771 21.615-13.542 43.23-34.635m143.62 0 8.854 9.375q-20.312 22.916-48.177 41.927-27.604 18.75-45.573 18.75-8.073 0-13.281-6.25-5.209-5.99-5.209-16.667 0-20.833 16.146-86.458l28.125-114.32q15.365-61.98 25.782-83.073 16.145-32.031 45.572-49.74 29.688-17.708 62.5-17.708 11.198 0 17.448 5.469 6.51 5.208 6.51 12.76 0 8.334-6.25 13.802-6.25 5.209-18.228 5.209-7.813 0-22.136-2.605-12.5-2.083-23.177-2.083t-16.146 4.427q-7.552 6.25-13.802 26.302-5.99 20.052-19.791 79.167l-25.783 109.12q-19.27 82.032-19.27 85.677 0 8.334 5.99 8.334 5.728 0 16.666-6.771 21.614-13.542 43.229-34.635m146.23-268.23q8.072 0 13.28 5.47 5.209 5.208 5.209 13.541 0 11.458-8.073 20.313-7.812 8.593-17.708 8.593-7.813 0-13.021-5.468-5.208-5.47-5.208-14.323 0-11.72 7.552-19.792 7.552-8.333 17.968-8.333m-102.6 172.4-11.458-8.854q26.042-28.646 47.396-40.625 21.614-12.24 36.719-12.24 8.333 0 12.76 3.646t4.427 9.896q0 7.552-16.927 64.063-27.604 92.448-27.604 111.46 0 3.646 1.823 6.25 1.823 2.344 3.906 2.344 8.333 0 42.708-32.292l10.157 9.896q-35.677 33.594-52.084 42.969-16.406 9.375-26.823 9.375-9.114 0-14.583-5.73-5.208-5.729-5.208-15.885 0-32.552 39.062-159.11 1.823-5.99 1.823-10.678 0-5.208-4.687-5.208-5.209 0-11.98 4.167-6.51 4.166-29.427 26.562m312.9-64.843 17.187-3.646-19.531 65.885q-11.719 39.323-22.135 90.625-5.73 27.865-5.73 35.938t6.51 8.073q4.167 0 13.282-5.47 16.146-9.635 30.99-23.957l8.333 10.156q-29.688 27.083-38.021 32.812-16.667 11.459-31.77 16.927-9.897 3.646-19.272 3.646-6.77 0-10.156-3.125-3.385-3.125-3.385-9.114 0-3.907 2.083-10.678l10.417-35.416q-22.396 26.823-53.386 46.094-19.01 11.979-34.895 11.979-15.105 0-23.177-10.677-10.938-14.323-10.938-37.5 0-27.604 14.583-61.459 14.844-33.854 39.584-61.458t52.083-40.625q21.094-9.896 54.167-9.896 8.333 0 16.927 1.042zm-32.292 39.843q-14.062-2.864-23.698-2.864-23.437 0-40.885 13.02-17.448 12.761-32.552 46.355-14.844 33.333-14.844 66.666 0 17.709 5.99 25.521 5.989 7.813 15.624 7.813 17.97 0 38.542-19.271 20.573-19.531 30.208-55.99zm142.58 183.59h-38.802l18.229-70.052q13.281-51.562 23.177-97.917 2.344-11.458 2.344-14.322 0-6.25-5.73-6.25-3.906 0-11.979 5.468-8.073 5.208-29.166 26.302l-8.073-9.114q25-26.823 49.74-40.104 25-13.542 38.28-13.542 4.688 0 7.292 2.344 2.865 2.083 2.865 5.468 0 3.386-3.386 17.97l-11.198 46.614q26.303-41.407 59.376-70.834 15.885-14.062 26.562-14.062 7.813 0 13.02 5.208 5.21 4.948 5.21 11.719 0 7.031-5.21 11.98-4.947 4.947-25.26 11.718-19.27 6.51-31.51 15.625-11.98 9.114-26.562 27.864-14.323 18.75-20.052 32.813-5.73 13.802-17.448 64.583zm328-53.906 7.29 9.896q-34.895 29.427-51.822 39.062-23.437 13.281-36.98 13.281-6.25 0-10.155-3.645-3.907-3.386-3.907-7.813t2.865-14.583l9.114-31.771q-31.25 33.594-52.083 45.573t-37.5 11.979q-13.802 0-23.177-11.98-9.375-12.239-9.375-35.676 0-36.98 25.26-84.896 25.521-48.177 56.511-71.094 31.25-23.177 57.031-23.177 5.73 0 17.188 1.823 12.24-50.781 23.437-73.958 11.198-23.438 28.906-40.365 17.709-16.927 40.365-26.041 22.917-9.375 42.708-9.375 10.417 0 16.667 5.468 6.25 5.47 6.25 13.802 0 8.073-5.73 13.282-5.728 4.948-15.624 4.948-6.51 0-24.219-2.605-17.708-2.604-24.219-2.604-9.114 0-16.146 5.73-6.77 5.468-13.02 23.958-4.167 11.718-19.01 74.74l-36.98 157.29q-6.51 27.865-6.51 36.98 0 9.896 7.552 9.896 4.687 0 10.937-3.386 8.854-4.948 34.375-24.74m-55.21-134.38q-20.832-4.688-29.426-4.688-17.448 0-34.115 13.803-16.666 13.541-32.291 52.864-15.365 39.323-15.365 68.49 0 13.28 7.031 21.875 7.292 8.333 16.407 8.333 10.937 0 25-9.635 20.052-14.323 31.77-34.896 7.032-13.021 19.01-63.802zm474.3-22.917h-13.541q2.864-27.343 2.864-41.406 0-20.052-10.937-31.51-10.677-11.72-29.167-11.72-28.646 0-50 20.834-21.354 20.573-21.354 46.354 0 13.802 5.73 25 5.989 11.198 26.04 31.25 36.72 35.938 48.178 56.25 11.458 20.313 11.458 39.584 0 28.385-17.448 54.687-17.187 26.302-51.041 43.23-33.594 17.187-71.094 17.187-36.98 0-62.5-19.271-25.26-19.271-25.26-40.625 0-11.458 6.51-19.01 6.77-7.553 15.364-7.553 8.855 0 14.584 7.032 3.646 4.166 7.291 18.75 4.167 17.708 10.157 25.52 5.99 8.073 16.406 13.021 10.677 5.209 23.177 5.209 37.24 0 65.104-25 27.865-25.26 27.865-55.73 0-10.416-3.646-20.572-3.386-10.417-12.76-23.438-6.51-8.854-28.907-31.25-22.135-21.875-27.864-29.948-8.073-11.719-11.98-23.437-3.906-11.98-3.906-23.698 0-23.698 15.886-47.656 15.885-23.959 41.145-38.021 25.521-14.323 57.813-14.323 16.146 0 39.844 4.948 13.541 2.604 23.437 3.906-5.729 16.927-8.854 32.031-3.125 14.844-8.594 59.375m181.38 154.69 5.469 15.104q-61.98 48.698-104.69 48.698-22.656 0-33.072-16.146-10.157-16.146-10.157-40.885 0-41.146 21.875-84.636t53.125-66.666q24.48-17.97 55.209-17.97 19.27 0 29.166 7.292t9.896 17.709q0 8.073-5.208 13.281-5.209 4.948-14.584 4.948-9.114 0-23.437-8.333-14.844-8.855-24.74-8.855-12.76 0-25.52 11.72-12.5 11.457-23.959 44.79-11.458 33.334-11.458 66.928 0 24.74 9.635 38.281 7.032 10.417 19.792 10.417 30.469 0 72.656-35.677m183.21-162.5q25.52 0 42.448 20.312 16.927 20.313 16.927 56.51 0 57.813-40.625 103.91-40.625 45.833-85.937 45.833-27.865 0-45.052-18.23-16.928-18.228-16.928-49.739 0-54.687 31.25-101.04 39.323-57.552 97.917-57.552m-22.135 19.531q-22.136 0-42.97 31.77-20.572 31.511-20.572 87.24 0 33.855 12.76 53.386 9.375 14.323 25 14.323 21.875 0 39.844-27.084 22.917-35.156 22.917-87.24 0-39.062-10.677-55.728-10.417-16.667-26.302-16.667m170.19 199.48h-38.803l18.23-70.052q13.28-51.562 23.177-97.917 2.343-11.458 2.343-14.322 0-6.25-5.729-6.25-3.906 0-11.979 5.468-8.073 5.208-29.167 26.302l-8.073-9.114q25-26.823 49.74-40.104 25-13.542 38.281-13.542 4.688 0 7.292 2.344 2.865 2.083 2.865 5.468 0 3.386-3.386 17.97l-11.198 46.614q26.302-41.407 59.375-70.834 15.886-14.062 26.563-14.062 7.812 0 13.02 5.208 5.209 4.948 5.209 11.719 0 7.031-5.209 11.98-4.947 4.947-25.26 11.718-19.27 6.51-31.51 15.625-11.98 9.114-26.563 27.864-14.323 18.75-20.052 32.813-5.729 13.802-17.448 64.583zm263.94-65.364 8.593 11.458q-63.802 60.677-109.38 60.677-18.49 0-28.385-12.5-9.635-12.5-9.635-40.104 0-55.73 33.854-110.94 38.02-62.76 90.885-62.76 18.49 0 28.125 9.375 9.896 9.115 9.896 25.26 0 16.927-11.719 33.334-11.719 16.406-41.927 34.114-15.104 8.594-64.583 30.99-2.344 14.062-2.344 26.823 0 18.49 5.73 25.78 5.989 7.293 17.187 7.293 10.677 0 23.437-5.99 17.188-8.073 50.26-32.812m-91.146-37.76q41.927-18.75 63.02-40.366 14.323-15.104 14.323-29.947 0-11.198-5.99-17.709-5.728-6.77-15.103-6.77-9.636 0-18.75 7.291-12.24 9.636-20.573 29.167-11.98 28.646-16.927 58.333m230.86-70.313q21.094-23.177 41.406-33.854 20.573-10.938 36.198-10.938 18.23 0 29.167 14.583t10.937 44.01q0 42.709-20.052 83.594-20.052 40.886-49.74 62.24-29.427 21.354-57.552 21.354-23.958 0-38.28-14.062-14.324-14.063-14.324-36.459 0-17.968 7.032-50l30.729-137.76q11.198-50.52 28.125-76.823 16.927-26.562 44.53-42.187 27.605-15.886 52.345-15.886 14.843 0 21.614 5.209 7.031 4.948 7.031 13.541 0 7.813-6.25 13.021t-17.708 5.208q-8.594 0-29.687-3.906-9.375-1.823-16.667-1.823-13.02 0-21.094 14.063-5.99 10.937-16.406 55.468zm51.302-15.886q-12.76 0-30.469 15.365-17.448 15.364-33.073 54.427-15.625 38.802-15.625 76.302 0 14.062 8.854 23.698 9.115 9.375 21.094 9.375 28.906 0 51.563-45.573 22.656-45.833 22.656-91.146 0-20.573-8.594-33.594-5.99-8.854-16.406-8.854m238.42-29.687q25.52 0 42.448 20.312 16.927 20.313 16.927 56.51 0 57.813-40.625 103.91-40.625 45.833-85.937 45.833-27.865 0-45.052-18.23-16.927-18.228-16.927-49.739 0-54.687 31.25-101.04 39.322-57.552 97.916-57.552m-22.135 19.531q-22.136 0-42.97 31.77-20.572 31.511-20.572 87.24 0 33.855 12.76 53.386 9.375 14.323 25 14.323 21.875 0 39.844-27.084 22.917-35.156 22.917-87.24 0-39.062-10.677-55.728-10.417-16.667-26.302-16.667m299.61-23.958 17.187-3.646-19.531 65.885q-11.719 39.323-22.136 90.625-5.729 27.865-5.729 35.938t6.51 8.073q4.167 0 13.282-5.47 16.146-9.635 30.99-23.957l8.333 10.156q-29.688 27.083-38.021 32.812-16.667 11.459-31.77 16.927-9.897 3.646-19.272 3.646-6.77 0-10.156-3.125-3.385-3.125-3.385-9.114 0-3.907 2.083-10.678l10.417-35.416q-22.396 26.823-53.386 46.094-19.01 11.979-34.895 11.979-15.105 0-23.178-10.677-10.937-14.323-10.937-37.5 0-27.604 14.583-61.459 14.844-33.854 39.584-61.458t52.083-40.625q21.094-9.896 54.167-9.896 8.333 0 16.927 1.042zm-32.292 39.843q-14.063-2.864-23.698-2.864-23.437 0-40.885 13.02-17.448 12.761-32.552 46.355-14.844 33.333-14.844 66.666 0 17.709 5.99 25.521 5.989 7.813 15.624 7.813 17.97 0 38.542-19.271 20.573-19.531 30.208-55.99zm142.58 183.59h-38.802l18.229-70.052q13.281-51.562 23.177-97.917 2.344-11.458 2.344-14.322 0-6.25-5.73-6.25-3.906 0-11.979 5.468-8.072 5.208-29.166 26.302l-8.073-9.114q25-26.823 49.74-40.104 25-13.542 38.28-13.542 4.688 0 7.292 2.344 2.865 2.083 2.865 5.468 0 3.386-3.386 17.97l-11.198 46.614q26.303-41.407 59.376-70.834 15.885-14.062 26.562-14.062 7.813 0 13.02 5.208 5.21 4.948 5.21 11.719 0 7.031-5.21 11.98-4.947 4.947-25.26 11.718-19.27 6.51-31.51 15.625-11.98 9.114-26.563 27.864-14.322 18.75-20.052 32.813-5.729 13.802-17.448 64.583zm328-53.906 7.29 9.896q-34.895 29.427-51.822 39.062-23.437 13.281-36.98 13.281-6.25 0-10.155-3.645-3.907-3.386-3.907-7.813t2.865-14.583l9.115-31.771q-31.25 33.594-52.084 45.573-20.833 11.979-37.5 11.979-13.802 0-23.177-11.98-9.375-12.239-9.375-35.676 0-36.98 25.26-84.896 25.521-48.177 56.511-71.094 31.25-23.177 57.031-23.177 5.73 0 17.188 1.823 12.24-50.781 23.437-73.958 11.198-23.438 28.906-40.365 17.709-16.927 40.365-26.041 22.917-9.375 42.708-9.375 10.417 0 16.667 5.468 6.25 5.47 6.25 13.802 0 8.073-5.73 13.282-5.728 4.948-15.624 4.948-6.51 0-24.219-2.605-17.708-2.604-24.219-2.604-9.114 0-16.145 5.73-6.771 5.468-13.021 23.958-4.167 11.718-19.01 74.74l-36.98 157.29q-6.51 27.865-6.51 36.98 0 9.896 7.552 9.896 4.687 0 10.937-3.386 8.854-4.948 34.375-24.74m-55.21-134.38q-20.832-4.688-29.426-4.688-17.448 0-34.115 13.803-16.666 13.541-32.291 52.864-15.365 39.323-15.365 68.49 0 13.28 7.031 21.875 7.292 8.333 16.407 8.333 10.937 0 25-9.635 20.052-14.323 31.77-34.896 7.032-13.021 19.01-63.802z" fill="#dab700" style="white-space:pre"/><path d="M821.73 2767.027c-22.162 0-43.305 5.998-63.32 17.936h-.006c-19.872 11.959-35.29 28.793-46.176 50.39l-.004.01-.002.01c-7.081 14.34-15.647 42.037-25.9 83.397l-28.125 114.324c-10.773 43.789-16.191 72.538-16.191 86.84 0 7.371 1.816 13.356 5.59 17.703 3.73 4.47 8.708 6.815 14.497 6.815 12.536 0 27.937-6.437 46.473-19.028h.002c18.674-12.74 34.836-26.802 48.473-42.187l.972-1.096-10.976-11.62-1.164 1.136c-14.342 13.996-28.665 25.467-42.961 34.424-7.181 4.444-12.63 6.527-15.818 6.527-1.626 0-2.489-.44-3.192-1.418s-1.197-2.73-1.197-5.316c0 .049.079-.758.275-1.854.197-1.095.497-2.614.897-4.543.8-3.857 2.002-9.359 3.607-16.494q4.815-21.407 14.45-62.418l25.78-109.115c9.197-39.387 15.796-65.773 19.762-79.055l.004-.014h.002c4.123-13.221 8.734-21.75 13.284-25.52 3.25-2.627 8.238-4.068 15.13-4.068q10.523-.001 22.914 2.063c9.587 1.742 17.018 2.625 22.399 2.625 8.218 0 14.7-1.784 19.254-5.578l.014-.012.015-.014c4.47-3.912 6.797-9.05 6.797-15.006 0-5.482-2.469-10.277-7.082-13.98-4.521-3.946-10.763-5.85-18.477-5.85zm143.624 0c-22.163 0-43.304 5.998-63.319 17.936h-.006c-19.872 11.959-35.29 28.793-46.176 50.39l-.004.01-.002.01c-7.081 14.34-15.647 42.037-25.9 83.397l-28.125 114.324c-10.773 43.789-16.193 72.538-16.193 86.84 0 7.371 1.818 13.356 5.591 17.703 3.732 4.47 8.71 6.815 14.498 6.815 12.536 0 27.937-6.437 46.473-19.028h.002c18.674-12.74 34.836-26.802 48.473-42.187l.97-1.096-10.974-11.62-1.164 1.136c-14.342 13.996-28.665 25.467-42.961 34.424-7.182 4.445-12.63 6.527-15.818 6.527-1.626 0-2.49-.44-3.194-1.418s-1.195-2.73-1.195-5.316c0 .049.079-.758.275-1.854.197-1.095.495-2.614.895-4.543.8-3.857 2.002-9.359 3.607-16.494q4.816-21.407 14.451-62.42h-.002l25.784-109.117c9.196-39.388 15.795-65.773 19.761-79.055 4.123-13.228 8.73-21.76 13.282-25.533h.002c3.25-2.63 8.24-4.07 15.136-4.07q10.523-.002 22.914 2.062c9.587 1.742 17.018 2.625 22.399 2.625 8.218 0 14.7-1.784 19.254-5.578l.013-.012.016-.014c4.47-3.911 6.795-9.05 6.795-15.006 0-5.481-2.467-10.276-7.08-13.98-4.522-3.945-10.765-5.85-18.479-5.85zm805.748.262c-13.448 0-27.886 3.183-43.313 9.494-15.285 6.15-28.92 14.946-40.865 26.365-11.95 11.424-21.702 25.047-29.244 40.833-7.453 15.426-15.15 39.735-23.19 72.87-6.876-1.054-12.288-1.646-15.992-1.646-17.667 0-36.982 7.916-57.984 23.492-20.921 15.472-39.881 39.368-56.971 71.63-16.92 32.094-25.445 60.625-25.445 85.642 0 15.838 3.155 28.097 9.705 36.648l.01.01v.01c6.485 8.286 14.773 12.594 24.437 12.594 11.495 0 24.248-4.115 38.297-12.193 13.096-7.53 29.129-21.458 47.985-41.252l-7.352 25.625c-1.926 6.829-2.926 11.72-2.926 15.017 0 3.414 1.59 6.522 4.442 9.002 2.912 2.706 6.755 4.057 11.22 4.057 9.551 0 22.03-4.57 37.77-13.488 11.483-6.537 28.767-19.586 52.062-39.23l1.147-.966-9.154-12.424-1.295 1.006c-16.99 13.176-28.488 21.427-34.17 24.604h-.01c-4.01 2.169-7.422 3.181-10.156 3.181-2.168 0-3.446-.603-4.393-1.843s-1.56-3.358-1.56-6.453c0-5.696 2.137-18.074 6.468-36.612l36.979-157.289c9.893-42.001 16.285-67.044 18.96-74.568v-.024c4.127-12.206 8.495-19.984 12.51-23.227 4.425-3.605 9.394-5.371 15.135-5.371 4.127 0 12.209.856 23.987 2.588 11.833 1.74 19.897 2.621 24.45 2.621 6.865 0 12.508-1.74 16.673-5.336l.016-.014.014-.014c4.124-3.749 6.253-8.704 6.253-14.465 0-5.955-2.327-11.097-6.796-15.008-4.499-3.935-10.497-5.863-17.721-5.863zm2340.875 0c-13.447 0-27.886 3.183-43.313 9.494-15.285 6.15-28.92 14.946-40.865 26.365-11.95 11.424-21.702 25.047-29.244 40.833-7.453 15.426-15.15 39.735-23.19 72.87-6.876-1.054-12.288-1.646-15.992-1.646-17.667 0-36.982 7.916-57.984 23.492-20.921 15.472-39.882 39.368-56.971 71.63-16.92 32.094-25.445 60.625-25.445 85.642 0 15.838 3.155 28.097 9.705 36.648l.01.01v.01c6.485 8.286 14.773 12.594 24.437 12.594 11.495 0 24.249-4.115 38.297-12.193 13.096-7.53 29.129-21.458 47.985-41.252l-7.352 25.625c-1.926 6.829-2.926 11.72-2.926 15.017 0 3.414 1.59 6.522 4.442 9.002 2.912 2.706 6.755 4.057 11.22 4.057 9.551 0 22.03-4.57 37.77-13.488 11.483-6.537 28.767-19.586 52.062-39.23l1.147-.966-9.154-12.424-1.295 1.006c-16.99 13.176-28.488 21.427-34.17 24.604h-.01c-4.01 2.169-7.422 3.181-10.156 3.181-2.168 0-3.446-.603-4.393-1.843s-1.56-3.358-1.56-6.453c0-5.696 2.137-18.074 6.468-36.612l36.979-157.289c9.893-42.001 16.285-67.044 18.96-74.568v-.024c4.127-12.206 8.495-19.984 12.51-23.227 4.425-3.605 9.394-5.371 15.135-5.371 4.127 0 12.209.856 23.986 2.588 11.834 1.74 19.898 2.621 24.452 2.621 6.864 0 12.507-1.74 16.672-5.336l.015-.014.015-.014c4.123-3.749 6.253-8.704 6.253-14.465 0-5.955-2.327-11.097-6.796-15.008-4.499-3.935-10.497-5.863-17.721-5.863zm-990.643 1.041c-16.832 0-34.555 5.404-53.133 16.094h-.01c-18.612 10.537-33.66 24.792-45.078 42.707-11.448 17.791-20.85 43.552-28.338 77.338l-30.728 137.76c-4.701 21.415-7.069 38.153-7.069 50.341 0 15.272 4.951 27.927 14.803 37.6 9.867 9.687 23.117 14.521 39.402 14.521 19.153 0 38.675-7.278 58.487-21.654h.01c20.043-14.419 36.78-35.394 50.236-62.83 13.465-27.455 20.215-55.576 20.215-84.299 0-19.816-3.656-34.835-11.258-44.97-7.548-10.064-17.866-15.223-30.445-15.223-10.79 0-23.086 3.754-36.95 11.125-12.44 6.54-25.029 16.676-37.784 30.015l20.04-85.79c6.933-29.636 12.505-48.212 16.247-55.051 5.195-9.042 11.597-13.246 19.697-13.246 4.728 0 10.186.594 16.36 1.794h.02c14.1 2.612 24.006 3.934 29.978 3.934 7.881 0 14.196-1.8 18.732-5.58 4.469-3.724 6.826-8.615 6.826-14.25 0-6.152-2.659-11.276-7.681-14.824-4.962-3.805-12.497-5.526-22.565-5.526zM821.73 2770.23c7.205 0 12.585 1.738 16.395 5.072l.025.023.028.02c4.045 3.237 5.91 6.938 5.91 11.513 0 5.147-1.836 9.204-5.688 12.582-3.78 3.143-9.445 4.828-17.191 4.828-5.03 0-12.351-.851-21.85-2.578h-.023c-8.406-1.401-16.217-2.106-23.44-2.106-7.339 0-13.11 1.512-17.152 4.783l-.008.01-.006.01c-5.515 4.565-10.101 13.561-14.308 27.059l-.004.01-.002.01c-4.02 13.458-10.613 39.841-19.817 79.262l-25.781 109.111c-6.424 27.346-11.243 48.16-14.457 62.45-1.607 7.144-2.813 12.656-3.62 16.546a183 183 0 0 0-.91 4.629c-.205 1.145-.326 1.762-.326 2.418 0 2.97.504 5.384 1.797 7.184 1.294 1.799 3.424 2.75 5.791 2.75 4.45 0 10.112-2.43 17.51-7.01h.008c14.125-8.85 28.224-20.128 42.307-33.737l6.724 7.12c-13.243 14.75-28.838 28.3-46.877 40.607-18.268 12.408-33.25 18.47-44.672 18.47-4.969 0-8.838-1.819-12.05-5.673l-.012-.014-.01-.012c-3.163-3.638-4.816-8.76-4.816-15.617 0-13.476 5.345-42.365 16.1-86.076l28.124-114.32c10.23-41.269 18.85-68.947 25.656-82.735l.004-.01h.002c10.64-21.103 25.6-37.424 44.957-49.074h.006c19.568-11.67 40.091-17.479 61.676-17.479zm143.624 0c7.204 0 12.584 1.738 16.394 5.072l.027.023.028.02c4.045 3.237 5.91 6.938 5.91 11.513 0 5.147-1.836 9.204-5.688 12.582-3.78 3.143-9.445 4.828-17.191 4.828-5.03 0-12.351-.851-21.85-2.578h-.023c-8.406-1.401-16.217-2.106-23.44-2.106-7.339 0-13.11 1.512-17.152 4.783l-.008.01-.006.01c-5.515 4.565-10.103 13.561-14.31 27.059l-.002.01-.002.01c-4.02 13.458-10.615 39.841-19.819 79.262l-25.78 109.111c-6.423 27.346-11.242 48.16-14.456 62.45-1.607 7.144-2.813 12.656-3.62 16.546a184 184 0 0 0-.911 4.629c-.206 1.145-.327 1.762-.327 2.418 0 2.97.506 5.384 1.8 7.184 1.293 1.799 3.423 2.75 5.79 2.75 4.45 0 10.112-2.43 17.51-7.01h.006c14.125-8.85 28.226-20.128 42.309-33.737l6.724 7.12c-13.243 14.75-28.838 28.3-46.877 40.607-18.268 12.408-33.25 18.47-44.672 18.47-4.969 0-8.84-1.819-12.052-5.673l-.01-.014-.012-.012c-3.163-3.638-4.814-8.76-4.814-15.617 0-13.476 5.345-42.365 16.1-86.076l28.124-114.323h-.002c10.23-41.269 18.852-68.948 25.658-82.736l.004-.01h.002c10.64-21.103 25.6-37.424 44.957-49.074h.006c19.567-11.67 40.09-17.479 61.674-17.479zm805.748.26c6.664 0 11.778 1.716 15.613 5.072 3.863 3.38 5.703 7.444 5.703 12.6 0 4.998-1.688 8.892-5.195 12.085-3.473 2.99-8.24 4.543-14.559 4.543-4.127 0-12.207-.856-23.984-2.588-11.834-1.74-19.9-2.62-24.453-2.62-6.412 0-12.207 2.056-17.157 6.089-5.006 4.047-9.314 12.234-13.517 24.662v.01c-2.881 8.105-9.162 32.882-19.059 74.898l-36.978 157.293c-4.35 18.614-6.553 30.885-6.553 37.342 0 3.502.646 6.335 2.217 8.393 1.57 2.058 4.068 3.103 6.935 3.103 3.51 0 7.385-1.241 11.7-3.578h.01l.01-.01c5.936-3.318 17.088-11.374 33.267-23.885l5.434 7.375c-22.614 19.015-39.54 31.742-50.43 37.942-15.508 8.787-27.684 13.072-36.188 13.072-3.855 0-6.771-1.077-9.064-3.217l-.022-.02-.022-.02c-2.343-2.03-3.354-4.122-3.354-6.603 0-2.606.91-7.434 2.801-14.143v-.01l9.113-31.764-2.708-1.53c-20.778 22.335-38.081 37.438-51.71 45.275-13.729 7.894-25.975 11.765-36.703 11.765-8.736 0-15.897-3.678-21.912-11.361-5.944-7.768-9.035-19.286-9.035-34.69 0-24.288 8.314-52.354 25.074-84.148 16.938-31.973 35.65-55.47 56.047-70.553 20.664-15.326 39.37-22.863 56.078-22.863 3.65 0 9.338.596 16.936 1.805l1.46.232.347-1.438c8.146-33.8 15.958-58.393 23.324-73.638 7.388-15.464 16.908-28.752 28.568-39.899 11.663-11.148 24.936-19.71 39.856-25.713h.01c15.128-6.188 29.16-9.255 42.101-9.255zm2340.875 0c6.664 0 11.778 1.716 15.613 5.072 3.863 3.38 5.703 7.444 5.703 12.6 0 4.998-1.688 8.892-5.195 12.085-3.473 2.99-8.24 4.543-14.559 4.543-4.127 0-12.207-.856-23.984-2.588-11.834-1.74-19.9-2.62-24.453-2.62-6.412 0-12.207 2.056-17.157 6.089-5.006 4.047-9.314 12.234-13.517 24.662v.01c-2.881 8.105-9.162 32.882-19.059 74.898l-36.978 157.293c-4.35 18.614-6.553 30.885-6.553 37.342 0 3.502.646 6.335 2.217 8.393 1.57 2.058 4.068 3.103 6.935 3.103 3.51 0 7.385-1.241 11.7-3.578h.01l.01-.01c5.936-3.318 17.088-11.374 33.267-23.885l5.434 7.375c-22.614 19.015-39.54 31.742-50.43 37.942-15.508 8.787-27.684 13.072-36.188 13.072-3.855 0-6.771-1.077-9.064-3.217l-.021-.02-.022-.02c-2.343-2.03-3.354-4.122-3.354-6.603 0-2.606.91-7.434 2.801-14.143v-.01l9.113-31.764-2.709-1.53c-20.777 22.335-38.08 37.438-51.709 45.275-13.729 7.894-25.975 11.765-36.703 11.765-8.736 0-15.897-3.678-21.912-11.361-5.944-7.768-9.035-19.286-9.035-34.69 0-24.288 8.314-52.354 25.074-84.148 16.938-31.973 35.65-55.47 56.047-70.553 20.664-15.326 39.37-22.863 56.078-22.863 3.65 0 9.338.596 16.936 1.805l1.46.232.346-1.438c8.147-33.8 15.96-58.393 23.325-73.638 7.388-15.464 16.907-28.752 28.568-39.899 11.663-11.148 24.936-19.71 39.856-25.713h.01c15.128-6.188 29.16-9.255 42.101-9.255zm-990.643 1.04c9.709 0 16.573 1.75 20.639 4.877l.027.021.027.02c4.33 3.048 6.351 6.94 6.351 12.233 0 4.781-1.81 8.572-5.674 11.793-3.797 3.164-9.287 4.836-16.683 4.836-5.485 0-15.367-1.282-29.383-3.877h-.014c-6.32-1.229-11.966-1.85-16.957-1.85-9.256 0-16.915 5.168-22.482 14.865l-.01.016-.01.014c-4.245 7.752-9.608 26.148-16.56 55.873l-22.755 97.397 4.14-4.55c13.974-15.352 27.646-26.512 40.968-33.515 13.567-7.213 25.403-10.75 35.447-10.75 11.726 0 20.849 4.563 27.885 13.944 6.981 9.309 10.619 23.63 10.619 43.05 0 28.222-6.618 55.83-19.889 82.89-13.279 27.075-29.7 47.59-49.238 61.644-19.422 14.094-38.267 21.05-56.612 21.05-15.659 0-27.93-4.542-37.16-13.605-9.245-9.078-13.844-20.727-13.844-35.316 0-11.77 2.32-28.361 6.993-49.65v-.01l30.728-137.757c7.441-33.571 16.79-59.025 27.908-76.303 11.15-17.495 25.783-31.36 43.97-41.654h.01c18.223-10.487 35.395-15.674 51.546-15.674zm-2515.363 31.436c-7.368 0-13.867 3.031-19.147 8.853-5.292 5.663-7.974 12.722-7.974 20.873 0 6.217 1.878 11.468 5.648 15.426 3.748 3.935 8.598 5.965 14.18 5.965 7.06 0 13.456-3.139 18.89-9.115 5.614-6.157 8.49-13.376 8.49-21.39 0-5.88-1.898-10.883-5.66-14.655-3.755-3.937-8.69-5.957-14.427-5.957m430.873 0c-7.363 0-13.86 3.027-19.137 8.842v.01c-5.295 5.663-7.98 12.725-7.98 20.879 0 6.216 1.88 11.467 5.65 15.425 3.748 3.936 8.598 5.965 14.18 5.965 7.06 0 13.456-3.14 18.89-9.117 5.613-6.156 8.49-13.375 8.49-21.389 0-5.88-1.9-10.882-5.662-14.654-3.755-3.937-8.69-5.957-14.427-5.957zm-430.873 3.201c5.02 0 8.933 1.626 12.12 4.973l.014.014.014.014c3.17 3.17 4.74 7.188 4.74 12.41 0 7.263-2.503 13.585-7.654 19.234h-.002c-4.982 5.48-10.391 8.07-16.525 8.07-4.835 0-8.665-1.616-11.862-4.972-3.174-3.334-4.767-7.63-4.767-13.219 0-7.469 2.35-13.6 7.12-18.7l.009-.01.01-.01c4.789-5.283 10.265-7.806 16.783-7.806zm430.873 0c5.02 0 8.935 1.626 12.123 4.973l.014.014.014.014c3.17 3.17 4.738 7.188 4.738 12.41 0 7.263-2.504 13.585-7.654 19.234-4.982 5.48-10.39 8.07-16.524 8.07-4.835 0-8.666-1.616-11.863-4.972-3.175-3.334-4.768-7.63-4.768-13.219 0-7.469 2.35-13.6 7.122-18.7l.01-.01.01-.01c4.789-5.283 10.265-7.806 16.783-7.806zm-681.53 12.945c-38.597 0-74.026 8.306-106.203 24.918-32.16 16.605-57.138 38.766-74.832 66.446h-.002c-17.5 27.475-26.293 56.012-26.293 85.496 0 21.434 5.113 39.59 15.393 54.3l.004.01h.004c10.384 14.609 20.841 22.29 31.514 22.29 4.183 0 7.884-1.495 10.765-4.375 3.025-3.026 4.637-6.716 4.637-10.768 0-3.921-1.054-7.421-3.17-10.31-2.227-3.222-7.21-7.3-15.227-12.878h-.01c-7.059-4.82-11.595-8.659-13.423-11.095h-.002a54.9 54.9 0 0 1-7.825-14.889c-1.683-5.56-2.53-11.556-2.53-18.006 0-23.782 7.77-47.5 23.43-71.252h.003c15.814-23.892 37.806-43.236 66.072-58.058 28.258-14.818 57.931-22.213 89.102-22.213 22.005 0 38.284 4.485 48.99 13.183h.01c10.952 8.762 16.326 20.079 16.326 34.428 0 20.787-7.596 38.616-22.96 53.81-14.726 14.56-36.696 22.048-66.099 22.39l13.565-56.014.004-.018c2.76-10.868 7.177-25.24 13.242-43.09l.936-2.756-2.829.686q-34.266 8.304-63.796 10.374l-1.16.083-3.999 15.994 2.409-.4c2.026-.339 3.69-.5 4.945-.5 2.962 0 5.157.87 6.941 2.655l.047.047.051.043c1.983 1.679 2.818 3.41 2.818 5.551 0 3.046-.75 7.843-2.298 14.205l-38.538 151.285c-6.743 26.28-14.116 43.226-21.455 50.565-7.214 7.215-19.742 11.525-37.761 12.555l-1.15.066-4.893 17.937 2.545-.515c13.584-2.752 29.193-4.135 46.818-4.135q17.4 0 33.232.78c22.233 1.389 36.71 2.085 43.59 2.085 23.515 0 46.092-5.537 67.656-16.582h.004c21.718-11.21 38.19-25.276 49.301-42.207h.002c11.26-17.067 16.928-35.199 16.928-54.264 0-11.68-2.487-22.121-7.484-31.228-4.812-9.084-11.784-16.586-20.832-22.445-8.005-5.337-18.589-9.153-31.45-11.686 19.776-7.4 35.085-17.38 45.356-30.258h.006c11.132-14.136 16.748-29.895 16.748-47.082 0-18.197-8.499-33.776-25.108-46.324-16.541-12.628-40.604-18.818-72.064-18.818zm0 3.2c31.04 0 54.373 6.137 70.123 18.162h.006c16.026 12.104 23.844 26.558 23.844 43.775 0 16.494-5.32 31.462-16.062 45.104-10.697 13.409-26.98 23.849-48.992 31.244l.257 3.096c15.127 2.406 26.976 6.528 35.56 12.251l.01.01.01.01c8.648 5.595 15.21 12.67 19.768 21.282l.006.01.006.01c4.721 8.599 7.094 18.467 7.094 29.699 0 18.434-5.441 35.891-16.402 52.504h-.002c-10.763 16.4-26.758 30.11-48.094 41.123-21.143 10.828-43.182 16.228-66.193 16.228-6.662 0-21.179-.691-43.39-2.08h-.02q-15.93-.783-33.413-.783c-16.749 0-31.68 1.283-44.932 3.768l2.961-10.856c17.795-1.177 30.794-5.477 38.674-13.357 8.286-8.286 15.495-25.542 22.293-52.037h.002l38.543-151.313.002-.01c1.577-6.485 2.389-11.41 2.389-14.96 0-3.054-1.416-5.824-3.926-7.962-2.374-2.338-5.53-3.535-9.13-3.535-.865 0-2.05.192-3.106.309l2.299-9.203c18.76-1.388 38.904-4.65 60.396-9.729-5.575 16.552-9.803 30.266-12.443 40.662l-.002.01-14.543 60.059h2.033c30.994 0 54.568-7.728 70.396-23.38 15.885-15.707 23.912-34.511 23.912-56.085 0-15.161-5.908-27.625-17.52-36.918-11.515-9.357-28.568-13.9-51.007-13.9-31.677 0-61.9 7.535-90.586 22.578-28.677 15.038-51.128 34.758-67.258 59.129h-.002c-15.934 24.164-23.963 48.534-23.963 73.015 0 6.738.889 13.061 2.674 18.953l.008.03.01.026a58.2 58.2 0 0 0 8.301 15.797h.006c2.34 3.12 7.005 6.92 14.18 11.82 7.924 5.514 12.826 9.756 14.428 12.084l.013.021.014.02c1.7 2.317 2.555 5.062 2.555 8.428 0 3.24-1.167 5.974-3.698 8.504-2.327 2.328-5.048 3.438-8.504 3.438-9.119 0-18.802-6.73-28.904-20.942-9.854-14.106-14.808-31.535-14.808-52.457 0-28.848 8.567-56.737 25.789-83.775h.002c17.375-27.18 41.875-48.941 73.603-65.323 31.713-16.373 66.596-24.562 104.734-24.562zm1703.366.185c-21.765 0-41.331 4.84-58.596 14.53-17.05 9.493-30.97 22.355-41.695 38.53s-16.153 32.386-16.153 48.542c0 7.99 1.333 16.06 3.985 24.193v.01c2.658 7.974 6.724 15.922 12.18 23.84l.01.01.01.01c3.987 5.619 13.266 15.556 28.044 30.16 14.9 14.9 24.528 25.332 28.733 31.049 6.184 8.59 10.354 16.276 12.537 22.994l.01.023.01.023c2.372 6.607 3.553 13.275 3.553 20.033 0 19.825-9.001 37.918-27.34 54.543-18.312 16.426-39.564 24.586-64.03 24.586-8.11 0-15.577-1.682-22.474-5.047h-.02c-6.747-3.205-11.987-7.378-15.809-12.53l-.01-.01-.01-.01c-3.747-4.886-7.118-13.223-9.869-24.913v-.022c-2.448-9.79-4.765-16.112-7.623-19.393-4.072-4.986-9.486-7.6-15.803-7.6-6.198 0-11.818 2.8-16.556 8.084l-.01.012-.012.012c-4.602 5.338-6.899 12.113-6.899 20.055 0 14.867 8.824 28.877 25.89 41.897 17.311 13.07 38.535 19.593 63.466 19.593 25.24 0 49.201-5.793 71.808-17.357l.014-.01c22.759-11.382 40.014-25.972 51.647-43.77l.01-.01c11.774-17.752 17.709-36.314 17.709-55.562 0-13.164-3.92-26.639-11.666-40.37-7.799-13.824-23.92-32.595-48.44-56.595l-.012-.012c-13.304-13.306-21.91-23.69-25.742-30.848-3.694-7.225-5.547-15.282-5.547-24.257 0-16.746 6.868-31.72 20.864-45.204 13.98-13.639 30.173-20.378 48.882-20.378 11.989 0 21.176 3.722 27.985 11.195l.012.014.014.014c6.97 7.302 10.494 17.329 10.494 30.406 0 9.266-.949 23.04-2.856 41.24l-.185 1.766h16.734l.172-1.404c3.644-29.673 6.515-49.476 8.57-59.24q3.102-14.994 8.803-31.842l.625-1.846-1.931-.254q-9.834-1.293-23.344-3.892l.025.01c-15.87-3.314-29.245-4.983-40.172-4.983zm0 3.201c10.6 0 23.79 1.63 39.517 4.914h.024c8.336 1.603 15.383 2.744 21.674 3.612-3.541 10.664-6.368 20.836-8.353 30.431-2.071 9.84-4.881 29.33-8.43 58.1h-10.39c1.775-17.275 2.714-30.67 2.714-39.807 0-13.65-3.763-24.624-11.367-32.6-7.427-8.143-17.679-12.23-30.336-12.23-19.485 0-36.625 7.15-51.117 21.29-14.472 13.945-21.838 29.873-21.838 47.5 0 9.422 1.965 18.025 5.906 25.728l.01.012.01.014c4.156 7.77 12.906 18.21 26.323 31.627l.01.01.01.01c24.43 23.91 40.424 42.636 47.902 55.892 7.532 13.353 11.252 26.267 11.252 38.797 0 18.596-5.696 36.49-17.182 53.803v.01c-11.281 17.264-28.048 31.489-50.418 42.674h-.02c-22.18 11.348-45.61 17.011-70.365 17.011-24.375 0-44.818-6.324-61.535-18.947-16.61-12.673-24.625-25.744-24.625-39.347 0-7.33 2.04-13.222 6.111-17.952 4.287-4.777 8.907-7.011 14.164-7.011 5.48 0 9.778 2.066 13.342 6.441l.018.021.02.021c1.995 2.28 4.535 8.45 6.943 18.086 2.801 11.895 6.194 20.56 10.424 26.086v.01c4.161 5.606 9.853 10.108 16.985 13.498h.01s.01 0 .01.01c7.334 3.575 15.313 5.363 23.863 5.363 25.184 0 47.334-8.505 66.174-25.408 18.813-17.055 28.388-36.114 28.388-56.914 0-7.124-1.248-14.166-3.732-21.094-2.333-7.164-6.667-15.091-12.975-23.852v-.01l-.01-.01c-4.477-6.09-14.114-16.483-29.064-31.433-14.733-14.56-24.027-24.587-27.68-29.733-5.3-7.697-9.215-15.366-11.763-23.007-2.556-7.84-3.829-15.566-3.829-23.2 0-15.44 5.164-31.003 15.62-46.773 10.454-15.767 23.964-28.25 40.591-37.506 16.763-9.408 35.738-14.117 57.03-14.117zm-581.723 76.227c-7.82 0-16.9 4.972-27.623 14.465-20.156 17.934-38.326 39.352-54.709 63.892l9.154-38.11v-.01c2.263-9.748 3.428-15.539 3.428-18.33 0-2.68-1.27-5.07-3.47-6.7-2.086-1.842-4.93-2.711-8.286-2.711-9.398 0-22.272 4.65-39.043 13.734-16.69 8.96-33.393 22.443-50.148 40.42l-.992 1.065 10.164 11.474 1.203-1.201c14.037-14.037 23.814-22.807 28.902-26.09l.016-.01.014-.01c5.283-3.579 9.225-5.193 11.082-5.193 1.619 0 2.521.393 3.117 1.043s1.012 1.768 1.012 3.607c0 1.473-.753 6.389-2.31 14.002q-9.889 46.311-23.16 97.838l-18.749 72.05h42.143l12.006-51.759c7.807-33.83 13.666-55.414 17.367-64.33v-.01c3.736-9.17 10.345-20.01 19.834-32.434l.01-.012c9.66-12.419 18.437-21.608 26.246-27.552l.01-.01c7.98-5.94 18.327-11.084 31.047-15.381h.01c13.6-4.534 22.05-8.285 25.867-12.096 3.733-3.556 5.688-8.044 5.688-13.117 0-4.916-1.966-9.313-5.69-12.86-3.753-3.747-8.58-5.668-14.139-5.668zm1259.732 0c-7.82 0-16.9 4.972-27.623 14.465-20.157 17.935-38.328 39.354-54.713 63.896l9.157-38.113v-.01c2.263-9.749 3.426-15.54 3.426-18.33 0-2.682-1.27-5.072-3.473-6.703-2.085-1.84-4.928-2.71-8.283-2.71-9.397 0-22.27 4.65-39.037 13.733-16.691 8.96-33.398 22.444-50.155 40.422l-.99 1.065 10.164 11.474 1.201-1.201c14.037-14.037 23.814-22.807 28.903-26.09l.016-.01.016-.01c5.282-3.579 9.224-5.193 11.082-5.193 1.619 0 2.521.393 3.117 1.043s1.012 1.768 1.012 3.607c0 1.473-.756 6.389-2.313 14.002q-9.886 46.311-23.158 97.838l-18.75 72.05h42.145l12.005-51.759c7.807-33.83 13.666-55.414 17.368-64.33v-.01c3.736-9.17 10.343-20.01 19.832-32.434l.01-.012c9.66-12.418 18.437-21.608 26.246-27.552l.01-.01c7.98-5.94 18.326-11.083 31.047-15.381h.01c13.595-4.533 22.043-8.28 25.863-12.09 3.736-3.557 5.693-8.048 5.693-13.123 0-4.919-1.967-9.318-5.695-12.866-3.752-3.743-8.578-5.662-14.133-5.662zm1081.143 0c-7.82 0-16.9 4.972-27.623 14.465-20.156 17.934-38.326 39.352-54.709 63.892l9.154-38.11v-.01c2.263-9.748 3.428-15.539 3.428-18.33 0-2.68-1.27-5.07-3.47-6.7-2.086-1.842-4.93-2.711-8.286-2.711-9.398 0-22.272 4.65-39.043 13.734-16.69 8.96-33.393 22.443-50.148 40.42l-.992 1.065 10.164 11.474 1.203-1.201c14.037-14.037 23.814-22.807 28.902-26.09l.016-.01.014-.01c5.283-3.579 9.225-5.193 11.082-5.193 1.619 0 2.522.393 3.117 1.043s1.012 1.768 1.012 3.607c0 1.473-.753 6.389-2.31 14.002q-9.889 46.311-23.16 97.838l-18.749 72.05h42.143l12.006-51.759c7.807-33.83 13.666-55.414 17.367-64.33v-.01c3.736-9.17 10.345-20.01 19.834-32.434l.01-.012c9.66-12.419 18.437-21.608 26.246-27.552l.01-.01c7.98-5.94 18.327-11.084 31.047-15.381h.01c13.6-4.534 22.05-8.285 25.867-12.096 3.733-3.556 5.688-8.044 5.688-13.117 0-4.916-1.966-9.313-5.69-12.86-3.753-3.747-8.58-5.668-14.139-5.668zm-2340.875 3.199c4.853 0 8.7 1.55 11.889 4.74l.016.016.014.014c3.208 3.048 4.71 6.455 4.71 10.559 0 4.292-1.513 7.78-4.71 10.818l-.014.016-.016.014c-2.783 2.783-11.167 6.843-24.635 11.332-12.965 4.38-23.617 9.65-31.953 15.858l-.01.01h-.01c-8.158 6.207-17.082 15.588-26.858 28.156v.02c-9.6 12.568-16.355 23.596-20.257 33.17v.01c-3.938 9.49-9.71 30.956-17.526 64.826l-11.431 49.281h-35.461l17.709-68.05q13.289-51.593 23.193-97.983v-.02c1.568-7.664 2.377-12.296 2.377-14.642 0-2.328-.54-4.337-1.854-5.77s-3.276-2.08-5.476-2.08c-3.344 0-7.383 2.027-12.846 5.725 0 0-.01 0-.01.01-5.482 3.538-14.892 12.082-28.2 25.33l-5.974-6.743c16.231-17.237 32.345-30.19 48.305-38.757 16.562-8.972 29.21-13.35 37.52-13.35 2.858 0 4.839.69 6.22 1.934l.062.057.066.049c1.577 1.146 2.205 2.368 2.205 4.173 0 1.724-1.093 7.912-3.343 17.608l-11.196 46.603 2.906 1.23c17.463-27.49 37.16-50.982 59.086-70.491 10.455-9.255 19.084-13.659 25.498-13.659zm1259.732 0c4.853 0 8.7 1.55 11.89 4.74l.013.016.016.014c3.208 3.048 4.711 6.455 4.711 10.559 0 4.292-1.513 7.78-4.71 10.818l-.017.016-.014.014c-2.782 2.783-11.167 6.843-24.635 11.332-12.964 4.38-23.619 9.65-31.955 15.858l-.01.01h-.01c-8.158 6.207-17.082 15.588-26.857 28.156v.02c-9.6 12.568-16.358 23.596-20.26 33.17v.01c-3.938 9.49-9.71 30.956-17.525 64.826l-11.432 49.283h-35.46l17.706-68.05q13.289-51.592 23.191-97.983v-.02c1.568-7.665 2.375-12.297 2.375-14.643 0-2.327-.537-4.336-1.851-5.77-1.314-1.432-3.276-2.08-5.477-2.08-3.347 0-7.39 2.03-12.863 5.737-5.482 3.541-14.887 12.083-28.19 25.326l-5.974-6.744c16.231-17.237 32.344-30.19 48.305-38.758 16.562-8.971 29.209-13.35 37.52-13.35 2.858 0 4.84.691 6.222 1.934l.06.057.069.05c1.576 1.146 2.205 2.367 2.205 4.173 0 1.724-1.093 7.912-3.344 17.608l-11.195 46.603 2.906 1.23c17.464-27.492 37.16-50.985 59.088-70.496 10.457-9.257 19.086-13.662 25.502-13.662zm1081.143 0c4.853 0 8.7 1.55 11.889 4.74l.016.016.014.014c3.208 3.048 4.71 6.455 4.71 10.559 0 4.292-1.513 7.78-4.71 10.818l-.014.016-.016.014c-2.783 2.783-11.167 6.843-24.635 11.332-12.965 4.38-23.617 9.65-31.953 15.858l-.01.01h-.01c-8.158 6.207-17.082 15.588-26.858 28.156v.02c-9.6 12.568-16.355 23.596-20.257 33.17v.01c-3.938 9.49-9.71 30.956-17.526 64.826l-11.431 49.281h-35.461l17.709-68.05q13.288-51.593 23.193-97.983v-.02c1.568-7.664 2.377-12.296 2.377-14.642 0-2.328-.54-4.337-1.854-5.77s-3.276-2.08-5.476-2.08c-3.344 0-7.383 2.027-12.846 5.725 0 0-.01 0-.01.01-5.482 3.538-14.892 12.082-28.2 25.33l-5.974-6.743c16.231-17.237 32.345-30.19 48.305-38.757 16.562-8.972 29.21-13.35 37.52-13.35 2.858 0 4.839.69 6.22 1.934l.062.057.066.049c1.577 1.146 2.205 2.368 2.205 4.173 0 1.724-1.093 7.912-3.343 17.608l-11.196 46.603 2.906 1.23c17.463-27.49 37.16-50.982 59.086-70.491 10.455-9.255 19.084-13.659 25.498-13.659zm-2551.21 1.227-20.491 4.345-6.09 9.897c-5.433-.62-10.8-.96-16.084-.96-22.208 0-40.492 3.314-54.846 10.048-18.456 8.788-35.982 22.474-52.588 41.002-16.604 18.526-29.894 39.16-39.857 61.883v.01c-9.785 22.714-14.713 43.407-14.713 62.091 0 15.703 3.721 28.592 11.266 38.471 5.671 7.497 14.005 11.307 24.449 11.307 10.99 0 22.9-4.131 35.74-12.221l.01-.01c18.712-11.637 34.974-25.45 49.03-41.205l-8.444 28.705c-1.414 4.597-2.154 8.258-2.154 11.147 0 4.294 1.269 7.862 3.9 10.29 2.648 2.444 6.482 3.55 11.242 3.55 6.455 0 13.067-1.258 19.815-3.743 10.228-3.703 20.934-9.412 32.133-17.111 5.794-3.984 18.388-14.881 38.193-32.95l1.121-1.023-10.396-12.67-1.248 1.203c-9.817 9.472-20.048 17.381-30.698 23.737-5.984 3.59-10.379 5.24-12.457 5.24-1.84 0-2.88-.482-3.638-1.422s-1.274-2.575-1.274-5.05c0-5.004 1.884-17.07 5.697-35.616 6.937-34.165 14.307-64.33 22.102-90.486zm2340.874 0-20.49 4.345-6.09 9.897c-5.434-.62-10.8-.96-16.084-.96-22.208 0-40.492 3.314-54.846 10.048-18.456 8.788-35.982 22.474-52.588 41.002-16.603 18.526-29.894 39.16-39.857 61.883v.01c-9.785 22.714-14.713 43.407-14.713 62.091 0 15.703 3.721 28.592 11.266 38.471 5.671 7.497 14.006 11.307 24.449 11.307 10.99 0 22.9-4.131 35.74-12.221l.01-.01c18.712-11.637 34.974-25.45 49.03-41.205l-8.444 28.705c-1.414 4.597-2.154 8.258-2.154 11.147 0 4.294 1.269 7.862 3.9 10.29 2.648 2.444 6.482 3.55 11.242 3.55 6.455 0 13.067-1.258 19.815-3.743 10.229-3.703 20.934-9.412 32.133-17.111 5.794-3.984 18.388-14.881 38.193-32.95l1.121-1.023-10.396-12.67-1.248 1.203c-9.817 9.472-20.048 17.381-30.698 23.737-5.984 3.59-10.379 5.24-12.457 5.24-1.84 0-2.88-.482-3.638-1.422s-1.274-2.575-1.274-5.05c0-5.004 1.884-17.07 5.698-35.616 6.937-34.165 14.306-64.33 22.101-90.486zm-2345.473 4.246-18.765 63.306q-11.743 39.408-22.17 90.762c-3.825 18.604-5.762 30.496-5.762 36.256 0 2.906.57 5.307 1.983 7.058 1.412 1.752 3.628 2.614 6.128 2.614 3.477 0 7.934-1.994 14.1-5.694 10.418-6.217 20.41-13.92 30-23.011l6.29 7.664c-19 17.302-31.525 28.096-36.718 31.666-11.023 7.578-21.498 13.154-31.408 16.742h-.01c-6.443 2.374-12.674 3.549-18.717 3.549-4.267 0-7.204-.979-9.07-2.701-1.883-1.738-2.871-4.248-2.871-7.94 0-2.32.648-5.776 2.012-10.207v-.01l10.42-35.428-2.764-1.476c-14.819 17.748-32.478 32.997-53.002 45.76-12.504 7.878-23.855 11.732-34.043 11.732-9.692 0-16.81-3.306-21.902-10.041-7.04-9.218-10.61-21.33-10.61-36.53 0-18.118 4.793-38.395 14.45-60.816v-.01c9.828-22.412 22.924-42.747 39.304-61.023 16.381-18.278 33.578-31.676 51.58-40.248 13.77-6.459 31.594-9.74 53.479-9.74q8.233 0 16.734 1.029l1.018.125 6.43-10.446zm2340.875 0-18.767 63.306c-7.83 26.274-15.218 56.526-22.17 90.764-3.825 18.604-5.762 30.496-5.762 36.256 0 2.906.57 5.307 1.983 7.058 1.412 1.752 3.628 2.614 6.129 2.614 3.477 0 7.933-1.994 14.1-5.694 10.417-6.217 20.41-13.92 30-23.011l6.288 7.664c-18.999 17.302-31.524 28.095-36.717 31.666-11.023 7.578-21.498 13.154-31.408 16.742h-.01c-6.443 2.374-12.674 3.549-18.717 3.549-4.267 0-7.204-.979-9.07-2.702-1.882-1.737-2.87-4.247-2.87-7.939 0-2.32.647-5.776 2.01-10.207v-.01l10.42-35.428-2.763-1.476c-14.819 17.748-32.478 32.997-53.002 45.76-12.503 7.878-23.855 11.732-34.043 11.732-9.692 0-16.81-3.306-21.902-10.041-7.04-9.218-10.61-21.33-10.61-36.53 0-18.118 4.793-38.395 14.45-60.816v-.01c9.828-22.413 22.924-42.747 39.304-61.023 16.381-18.278 33.578-31.676 51.58-40.248 13.77-6.459 31.594-9.74 53.479-9.74q8.233 0 16.734 1.029l1.018.125 6.43-10.446zm-3026.877 3.047c-10.501 0-22.957 4.208-37.505 12.447-14.468 8.117-30.36 21.768-47.791 40.941l-1.166 1.282 13.93 10.765.995-.972c15.252-14.906 25.197-23.812 29.162-26.352 4.351-2.675 8.084-3.922 11.125-3.922 1.267 0 1.9.3 2.327.774.426.473.761 1.34.761 2.835 0 2.918-.572 6.33-1.754 10.211-13.025 42.203-22.798 76.578-29.32 103.145-6.522 26.568-9.81 45.265-9.81 56.435 0 7.045 1.836 12.794 5.625 16.961l.011.016.014.014c3.952 4.141 9.329 6.225 15.74 6.225 7.425 0 16.553-3.264 27.617-9.586 11.219-6.41 28.567-20.764 52.387-43.193l1.217-1.145-12.45-12.13-1.116 1.048c-11.435 10.742-20.695 18.786-27.733 24.108-3.519 2.66-6.486 4.64-8.85 5.925s-4.157 1.825-5.029 1.825c-.78 0-1.594-.403-2.611-1.696-1-1.442-1.518-3.15-1.518-5.299 0-5.95 2.263-18.449 6.854-36.984 4.59-18.535 11.486-43.214 20.683-74.016h-.002c5.646-18.846 9.882-33.615 12.711-44.322 1.415-5.353 2.478-9.69 3.192-13.03.714-3.338 1.094-5.611 1.094-7.169 0-4.544-1.714-8.415-5.012-11.13-3.332-2.745-7.989-4.013-13.778-4.013zm430.875 0c-10.501 0-22.959 4.208-37.507 12.447-14.467 8.117-30.36 21.768-47.791 40.941l-1.166 1.282 13.931 10.765.994-.972c15.25-14.904 25.194-23.809 29.16-26.35 4.353-2.677 8.087-3.924 11.13-3.924 1.266 0 1.9.3 2.326.774.426.473.76 1.34.76 2.835 0 2.918-.573 6.33-1.754 10.211-13.026 42.203-22.797 76.578-29.319 103.145-6.522 26.568-9.812 45.265-9.812 56.435 0 7.045 1.836 12.794 5.625 16.961l.011.016.014.014c3.952 4.141 9.33 6.225 15.742 6.225 7.425 0 16.551-3.264 27.615-9.586 11.219-6.41 28.567-20.764 52.387-43.193l1.217-1.145-12.45-12.13-1.115 1.048c-11.434 10.742-20.696 18.786-27.734 24.108-3.519 2.66-6.486 4.64-8.85 5.925s-4.157 1.825-5.029 1.825c-.78 0-1.594-.402-2.613-1.698-1-1.442-1.516-3.149-1.516-5.297 0-5.95 2.263-18.449 6.854-36.984 4.59-18.535 11.487-43.213 20.683-74.014 5.645-18.845 9.88-33.613 12.71-44.32 1.414-5.354 2.477-9.69 3.19-13.03.715-3.339 1.095-5.612 1.095-7.17 0-4.544-1.712-8.414-5.01-11.13-3.332-2.744-7.989-4.012-13.778-4.012zm1860.135.78c-35.876 0-66.736 21.41-92.254 63.532-22.691 37.007-34.084 74.294-34.084 111.768 0 18.589 3.196 32.295 9.967 41.08l.01.01.01.01c6.898 8.713 16.952 13.107 29.639 13.107 31.092 0 67.806-20.535 110.478-61.117l1.032-.98-10.407-13.877-1.279.958c-22.009 16.464-38.736 27.362-49.982 32.645-8.352 3.92-15.94 5.838-22.758 5.838-7.11 0-12.256-2.222-15.938-6.695-3.407-4.348-5.378-12.628-5.378-24.778 0-8.156.759-16.75 2.216-25.742 32.447-14.698 53.8-24.932 63.9-30.68l.01-.01h.01c20.248-11.869 34.389-23.321 42.42-34.566 7.964-11.15 12.016-22.608 12.016-34.262 0-11.085-3.466-20.031-10.402-26.426-6.79-6.593-16.635-9.81-29.219-9.81zm-593.373.522c-20.798 0-39.577 6.111-56.154 18.28-21.075 15.63-38.932 38.068-53.602 67.232-14.674 29.174-22.047 57.641-22.047 85.356 0 16.711 3.436 30.66 10.403 41.736l.01.01v.01c7.23 11.208 18.934 16.879 34.418 16.879 29.08 0 64.216-16.466 105.676-49.041l.91-.715-6.647-18.354-1.754 1.485c-27.98 23.662-51.935 35.299-71.623 35.299-8.071 0-14.028-3.139-18.465-9.711l-.011-.018-.013-.016c-6.156-8.653-9.34-21.069-9.34-37.354 0-22.214 3.788-44.34 11.374-66.406 7.599-22.107 15.582-36.852 23.525-44.133 8.311-7.633 16.42-11.299 24.438-11.299 6.12 0 14.158 2.807 23.92 8.63h.01l.01.01c9.676 5.629 17.678 8.548 24.242 8.548 6.531 0 11.865-1.758 15.685-5.387l.014-.014.016-.016c3.765-3.764 5.676-8.686 5.676-14.412 0-7.45-3.655-13.919-10.545-18.996-6.996-5.155-17.068-7.603-30.117-7.603zm195.447 0c-39.586 0-72.812 19.575-99.236 58.248v.01c-20.996 31.145-31.523 65.173-31.523 101.936 0 21.293 5.756 38.338 17.353 50.828h.01c11.755 12.467 27.29 18.732 46.215 18.732 30.748 0 59.856-15.594 87.135-46.37 27.303-30.979 41.023-66.049 41.023-104.965 0-24.382-5.713-43.635-17.297-57.536-11.537-13.845-26.239-20.886-43.677-20.886zm841.426 0c-39.586 0-72.814 19.575-99.238 58.248v.01c-20.996 31.145-31.523 65.173-31.523 101.936 0 21.293 5.758 38.338 17.355 50.828 11.754 12.467 27.291 18.732 46.217 18.732 30.747 0 59.855-15.594 87.134-46.37 27.303-30.979 41.026-66.049 41.026-104.965 0-24.382-5.713-43.635-17.297-57.536-11.538-13.845-26.24-20.886-43.678-20.886zm-2734.51 1.897c5.323 0 9.174 1.164 11.745 3.281 2.605 2.145 3.843 4.873 3.843 8.662 0 .96-.325 3.242-1.021 6.5-.697 3.258-1.75 7.56-3.156 12.883-2.814 10.647-7.042 25.391-12.682 44.219-9.206 30.83-16.114 55.544-20.725 74.162-4.61 18.617-6.947 31.03-6.947 37.754 0 2.697.697 5.144 2.113 7.168l.022.033.025.03c1.397 1.796 3.181 2.962 5.17 2.962 1.906 0 3.974-.806 6.559-2.211 2.584-1.406 5.65-3.465 9.25-6.186 6.936-5.244 15.946-13.093 26.86-23.299l7.868 7.666c-23.077 21.655-40.091 35.637-50.55 41.614-10.811 6.177-19.565 9.164-26.03 9.164-5.73 0-10.07-1.73-13.406-5.215-3.15-3.47-4.785-8.307-4.785-14.799 0-10.53 3.222-29.204 9.72-55.674s16.257-60.8 29.272-102.969h.002c1.25-4.104 1.893-7.81 1.893-11.142 0-1.976-.448-3.715-1.584-4.977s-2.847-1.832-4.705-1.832c-3.9 0-8.147 1.53-12.817 4.404l-.014.01-.011.01c-4.592 2.94-14.08 11.58-28.672 25.807l-8.963-6.928c16.805-18.308 32.12-31.383 45.791-39.052h.006c14.27-8.081 26.292-12.034 35.93-12.034zm430.875 0c5.323 0 9.172 1.164 11.743 3.281 2.605 2.145 3.843 4.873 3.843 8.662 0 .96-.325 3.242-1.021 6.5-.697 3.258-1.75 7.56-3.156 12.883-2.814 10.647-7.042 25.391-12.682 44.219-9.206 30.83-16.112 55.544-20.723 74.162-4.61 18.617-6.949 31.03-6.949 37.754 0 2.697.697 5.144 2.113 7.168l.024.033.023.03c1.397 1.796 3.181 2.962 5.17 2.962 1.906 0 3.974-.806 6.559-2.211 2.584-1.406 5.65-3.465 9.25-6.186 6.936-5.244 15.946-13.093 26.86-23.299l7.868 7.666c-23.078 21.655-40.091 35.637-50.55 41.614-10.811 6.177-19.563 9.164-26.028 9.164-5.73 0-10.071-1.73-13.408-5.215-3.15-3.47-4.785-8.307-4.785-14.799 0-10.53 3.222-29.204 9.72-55.674s16.257-60.8 29.272-102.969h.002c1.25-4.104 1.893-7.81 1.893-11.142 0-1.976-.448-3.715-1.584-4.977s-2.845-1.832-4.704-1.832c-3.898 0-8.148 1.53-12.818 4.404l-.012.01-.011.01c-4.592 2.94-14.082 11.58-28.674 25.807l-8.963-6.928c16.805-18.308 32.12-31.383 45.791-39.052h.006c14.27-8.081 26.294-12.034 35.932-12.034zm1860.135.781c12.056 0 20.953 3.029 27.01 8.922l.016.016.016.016c6.25 5.757 9.38 13.647 9.38 24.084 0 10.915-3.76 21.676-11.421 32.402-7.593 10.63-21.403 21.922-41.434 33.664-9.94 5.655-31.474 15.994-64.433 30.912l-.778.354-.14.842q-2.364 14.178-2.365 27.086c0 12.491 1.844 21.391 6.07 26.77l.01.013.012.014c4.303 5.24 10.611 7.875 18.424 7.875 7.417 0 15.455-2.074 24.117-6.14 11.428-5.368 27.833-16.082 49.248-32.037l6.773 9.03c-41.936 39.64-77.8 59.282-107.222 59.282-11.962 0-20.828-3.94-27.123-11.887-6.072-7.883-9.297-20.907-9.297-39.117 0-36.829 11.173-73.5 33.617-110.102 25.177-41.559 54.906-61.99 89.516-61.99zm-593.373.521c12.646 0 22.021 2.414 28.219 6.981 6.304 4.645 9.244 9.982 9.244 16.42 0 5.028-1.557 8.954-4.725 12.13-3.124 2.962-7.506 4.499-13.466 4.499-5.586 0-13.204-2.633-22.618-8.108l-.016-.01c-10.022-5.976-18.474-9.07-25.544-9.07-8.996 0-17.9 4.148-26.602 12.139-8.724 7.996-16.712 23.113-24.39 45.451-7.693 22.378-11.546 44.87-11.546 67.447 0 16.688 3.238 29.785 9.918 39.186 4.939 7.31 12.172 11.113 21.11 11.113 20.491 0 44.405-11.716 71.916-34.625l4.302 11.883c-40.768 31.863-75.128 47.666-102.78 47.666-14.72 0-25.065-5.09-31.723-15.404-6.572-10.451-9.907-23.756-9.907-40.026 0-27.147 7.211-55.106 21.703-83.918 14.498-28.822 32.059-50.827 52.65-66.1 16.061-11.786 34.084-17.654 54.255-17.654zm195.447 0c16.59 0 30.188 6.499 41.22 19.737 10.985 13.182 16.556 31.604 16.556 55.486 0 38.167-13.36 72.37-40.225 102.85-26.886 30.332-55.07 45.29-84.738 45.29-18.223 0-32.718-5.885-43.879-17.718l-.01-.01c-10.967-11.815-16.492-27.927-16.492-48.643 0-36.15 10.305-69.48 30.97-100.138l.01-.01c26.006-38.056 58.055-56.846 96.59-56.846zm841.426 0c16.59 0 30.187 6.499 41.219 19.737 10.985 13.182 16.557 31.604 16.557 55.486 0 38.167-13.363 72.37-40.227 102.85-26.886 30.331-55.069 45.29-84.736 45.29-18.223 0-32.718-5.885-43.88-17.718-10.971-11.816-16.5-27.93-16.5-48.65 0-36.15 10.305-69.48 30.971-100.139l.01-.01c26.006-38.056 58.055-56.846 96.59-56.846zm-863.56 16.333c-15.523 0-30.276 11.094-44.307 32.492-13.951 21.368-20.834 50.763-20.834 88.113 0 22.77 4.283 40.887 13.022 54.262 6.473 9.89 15.432 15.047 26.338 15.047 15.243 0 29.033-9.494 41.177-27.8v-.01c15.475-23.74 23.176-53.156 23.176-88.112 0-26.177-3.502-44.988-10.92-56.579v-.01c-7.138-11.417-16.506-17.412-27.654-17.412zm841.425 0c-15.522 0-30.275 11.094-44.306 32.492-13.952 21.368-20.834 50.763-20.834 88.113 0 22.77 4.283 40.887 13.021 54.262 6.473 9.89 15.435 15.047 26.34 15.047 15.244 0 29.031-9.494 41.176-27.8v-.01c15.475-23.74 23.176-53.156 23.176-88.112 0-26.177-3.502-44.988-10.92-56.579v-.01c-7.138-11.417-16.507-17.412-27.654-17.412zm-442.197 1.562c-6.823 0-13.452 2.607-19.74 7.635h-.01c-8.43 6.64-15.418 16.598-21.045 29.787v.02c-8.032 19.206-13.71 38.772-17.03 58.688l-.49 2.939 2.721-1.217c28.07-12.553 49.243-26.083 63.514-40.707l.01-.01.01-.01c9.728-10.26 14.762-20.638 14.762-31.049 0-7.736-2.106-14.09-6.393-18.763-4.096-4.826-9.677-7.315-16.3-7.315zm-399.228 1.637c10.03 0 18.194 5.113 24.945 15.914v.01l.01.01c6.812 10.633 10.424 28.971 10.424 54.867 0 34.482-7.575 63.22-22.65 86.354-11.814 17.806-24.587 26.369-38.51 26.369-9.928 0-17.636-4.392-23.663-13.6-8.275-12.666-12.5-30.141-12.5-52.51 0-36.953 6.833-65.716 20.311-86.361 13.746-20.96 27.638-31.045 41.629-31.045zm841.425 0c10.031 0 18.195 5.113 24.946 15.914v.02c6.812 10.633 10.426 28.971 10.426 54.867 0 34.488-7.578 63.23-22.659 86.365-11.811 17.798-24.582 26.358-38.502 26.358-9.927 0-17.635-4.392-23.662-13.6-8.275-12.666-12.5-30.141-12.5-52.51 0-36.953 6.835-65.716 20.313-86.361 13.745-20.96 27.638-31.045 41.629-31.045zm-442.197 1.562c5.865 0 10.341 2.02 13.883 6.205l.022.025.021.023c3.684 4.004 5.568 9.445 5.568 16.625 0 9.377-4.513 18.96-13.873 28.834-13.35 13.679-33.35 26.576-59.68 38.635 3.338-18.59 8.69-36.88 16.208-54.861v-.01c5.48-12.843 12.202-22.321 20.086-28.528h.01c5.861-4.689 11.732-6.94 17.752-6.94zm-1245.41 1.748c-12.05 0-23.804 4.79-35.123 14.16 0 0-.01 0-.01.01-11.505 9.354-22.296 27.177-32.758 53.506-10.292 26.34-15.473 49.347-15.473 69.073 0 9.136 2.45 16.846 7.393 22.888l.016.02.018.02c5.079 5.804 11.047 8.88 17.611 8.88 7.762 0 16.37-3.384 25.905-9.917l.012-.01.014-.01c13.543-9.673 24.302-21.489 32.23-35.406l.01-.016.01-.016c4.92-9.112 11.165-30.303 19.16-64.195l12.338-53.915-1.566-.353c-13.935-3.135-23.76-4.727-29.78-4.727zm2340.875 0c-12.05 0-23.804 4.79-35.123 14.16 0 0-.01 0-.01.01-11.505 9.354-22.296 27.177-32.758 53.506-10.292 26.34-15.473 49.347-15.473 69.073 0 9.136 2.45 16.846 7.393 22.888l.016.02.018.02c5.079 5.804 11.047 8.88 17.611 8.88 7.762 0 16.37-3.384 25.905-9.917l.012-.01.014-.01c13.543-9.673 24.302-21.489 32.23-35.406l.01-.016.01-.016c4.92-9.112 11.165-30.303 19.16-64.195l12.338-53.915-1.566-.353c-13.935-3.135-23.76-4.727-29.78-4.727zm-2340.875 3.2c5.196 0 14.619 1.496 27.5 4.337l-11.611 50.737c-7.972 33.792-14.396 55.125-18.85 63.383-7.694 13.502-18.107 24.944-31.289 34.363-9.21 6.307-17.264 9.346-24.082 9.346-5.579 0-10.541-2.475-15.178-7.762-4.424-5.415-6.66-12.283-6.66-20.848 0-19.161 5.06-41.811 15.252-67.898 10.368-26.093 21.1-43.51 31.813-52.213l.01-.01h.01c10.9-9.027 21.883-13.436 33.093-13.436zm2340.875 0c5.196 0 14.619 1.496 27.5 4.337l-11.611 50.737c-7.972 33.792-14.396 55.125-18.85 63.383-7.694 13.502-18.106 24.944-31.289 34.363-9.21 6.307-17.264 9.346-24.082 9.346-5.579 0-10.541-2.475-15.178-7.762-4.424-5.415-6.66-12.283-6.66-20.848 0-19.161 5.06-41.811 15.252-67.898 10.368-26.093 21.1-43.51 31.813-52.213l.01-.01h.01c10.9-9.027 21.883-13.436 33.093-13.436zm-869.549.447c-9.149 0-19.568 5.388-31.517 15.756h-.01c-11.96 10.53-23.034 28.868-33.5 55.033-10.483 26.032-15.74 51.675-15.74 76.896 0 9.711 3.112 18.07 9.277 24.78l.014.017.016.016c6.32 6.5 13.839 9.859 22.242 9.859 10.056 0 19.586-4 28.402-11.793s16.98-19.354 24.592-34.666c15.197-30.743 22.822-61.38 22.822-91.855 0-13.939-2.914-25.471-8.857-34.475l-.01-.01-.01-.01c-4.234-6.26-10.333-9.557-17.73-9.557zm-1880.97 2.863c-15.922 0-29.935 4.454-41.842 13.34-11.99 8.774-22.925 24.451-33.055 46.98-9.976 22.404-14.982 44.86-14.982 67.319 0 11.986 1.972 20.822 6.32 26.494 4.245 5.537 10.038 8.44 16.894 8.44 12.552 0 25.75-6.698 39.635-19.704 13.985-13.277 24.177-32.23 30.655-56.738l22.05-82.889-1.664-.338c-9.445-1.924-17.435-2.898-24.017-2.898zm2340.875 0c-15.922 0-29.935 4.454-41.842 13.34-11.99 8.774-22.925 24.451-33.055 46.98-9.976 22.404-14.982 44.86-14.982 67.319 0 11.986 1.972 20.822 6.32 26.494 4.245 5.537 10.038 8.44 16.894 8.44 12.551 0 25.75-6.698 39.635-19.704 13.985-13.277 24.177-32.23 30.654-56.738l22.051-82.889-1.664-.338c-9.445-1.924-17.435-2.898-24.017-2.898zm-459.905.336c6.49 0 11.325 2.604 15.076 8.146 5.51 8.356 8.32 19.213 8.32 32.698 0 29.941-7.48 60.07-22.491 90.437-7.492 15.068-15.474 26.291-23.844 33.69-8.372 7.399-17.068 10.992-26.283 10.992-7.562 0-14.102-2.888-19.93-8.875-5.63-6.135-8.418-13.567-8.418-22.598 0-24.778 5.158-50.002 15.508-75.705 10.364-25.912 21.334-43.856 32.636-53.812l.01-.01c11.658-10.113 21.55-14.965 29.412-14.965zm-1880.97 2.865c5.854 0 13.186.899 21.699 2.553l-21.162 79.55c-6.37 24.103-16.319 42.475-29.764 55.24-13.542 12.682-26.035 18.83-37.44 18.83-5.99 0-10.614-2.307-14.355-7.186-3.638-4.745-5.658-12.922-5.658-24.547 0-21.985 4.89-43.975 14.705-66.016 10.006-22.255 20.77-37.477 32.039-45.719h.02c11.357-8.475 24.599-12.703 39.928-12.703zm2340.875 0c5.854 0 13.186.899 21.699 2.553l-21.162 79.55c-6.37 24.103-16.319 42.475-29.764 55.24-13.542 12.682-26.035 18.83-37.44 18.83-5.99 0-10.614-2.307-14.355-7.186-3.638-4.745-5.66-12.922-5.66-24.547 0-21.985 4.892-43.975 14.707-66.016 10.006-22.255 20.77-37.477 32.039-45.719h.02c11.357-8.475 24.599-12.703 39.928-12.703zm-3216.493 27.53-13.588 53.552c-6.759 27.037-13.258 47.812-19.449 62.258l-.004.01-.002.01c-3.581 8.528-8.165 15.733-13.75 21.656l-1.886 2 2.67.653c15.71 3.84 29.278 5.775 40.744 5.775 30.71 0 54.205-9.562 69.984-28.709l-.004.01c15.832-18.998 23.807-40.334 23.807-63.785 0-11.725-3.042-21.903-9.145-30.348-5.907-8.586-13.86-14.638-23.703-18.039-9.823-3.454-27.805-5.035-54.428-5.035zm2.485 3.22c25.762.057 43.36 1.748 52.136 4.836h.008c9.25 3.195 16.572 8.77 22.122 16.842l.01.016.011.016c5.695 7.871 8.551 17.305 8.551 28.488 0 22.73-7.648 43.235-23.066 61.737h-.006c-15.124 18.352-37.463 27.54-67.516 27.54-10.471 0-23.004-1.739-37.42-5.115 5.047-5.82 9.277-12.63 12.594-20.529 6.307-14.72 12.827-35.605 19.607-62.727z" fill="#af1b23" style="white-space:pre"/></g></svg>
