<?xml version="1.0" encoding="UTF-8" standalone="no"?>
<svg
   version="1.1"
   viewBox="0 0 616.51062 582.41528"
   width="616.51062"
   height="582.41528"
   id="svg53"
   sodipodi:docname="Logo_Giocatore_Giallo.svg"
   inkscape:export-filename="Logo_Giocatore_Bianco.svg"
   inkscape:export-xdpi="96"
   inkscape:export-ydpi="96"
   inkscape:version="1.4.3 (0d15f75, 2025-12-25)"
   xmlns:inkscape="http://www.inkscape.org/namespaces/inkscape"
   xmlns:sodipodi="http://sodipodi.sourceforge.net/DTD/sodipodi-0.dtd"
   xmlns="http://www.w3.org/2000/svg"
   xmlns:svg="http://www.w3.org/2000/svg">
  <defs
     id="defs53" />
  <sodipodi:namedview
     id="namedview53"
     pagecolor="#ffffff"
     bordercolor="#000000"
     borderopacity="0.89803922"
     inkscape:showpageshadow="false"
     inkscape:pageopacity="0.0"
     inkscape:pagecheckerboard="false"
     inkscape:deskcolor="#ffffff"
     inkscape:export-bgcolor="#ffffffff"
     showborder="false"
     labelstyle="default"
     inkscape:clip-to-page="false"
     inkscape:zoom="1.5761719"
     inkscape:cx="256"
     inkscape:cy="256"
     inkscape:window-width="1920"
     inkscape:window-height="1009"
     inkscape:window-x="-8"
     inkscape:window-y="-8"
     inkscape:window-maximized="1"
     inkscape:current-layer="svg53"
     borderlayer="false"
     inkscape:antialias-rendering="true">
    <inkscape:page
       x="0"
       y="0"
       width="616.51062"
       height="582.41528"
       id="page1"
       margin="0"
       bleed="0" />
  </sodipodi:namedview>
  <rect
     style="display:inline;fill:#ffffff;fill-opacity:1;fill-rule:evenodd;stroke:#000000;stroke-width:0.801831"
     id="rect12"
     width="615.7088"
     height="581.61346"
     x="0.40091705"
     y="0.40091729" />
  <path
     d="m 269.99866,66.185943 h 18 l 15,4 14,7 11,9 8,10 8,15.999997 3,13 3,65 v 27 h 9 l 9,4 8,7 4,10 v 12 l -4,9 -5,6 -9,5 -5,1 h -9 l -1,8 -5,14 -7,13 -11,14 -13,11 -6,4 v 25 l 14,10 56,1 13,4 11,7 7,-18 16,-43 15,-41 10,-27 23,-62 15,-41 13,-35 15,-39.999997 4,-3 9,1 19,7 4,4 v 7 l -13,39.999997 -40,120 -14,43 -32,96 -14,43 -16,48 -1,38 -5,5 h -313 l -5.000005,-5 v -102 l 3,-11 6.000005,-12 9,-10 9,-7 12,-5 5,-1 56,-1 13,-10 h 2 l -1,-25 -13,-9 -12,-12 -9,-14 -6,-14 -3,-10 v -5 h -10 l -9,-3 -9,-8 -4,-8 -1,-11 3,-10 7,-8 8,-5 4,-1 h 9 l -1,-19 -7,-49 1,-13 5,-15 7,-11 7,-8 13,-8.999997 12,-5 17,-3 38,-16 z"
     fill="#010000"
     id="path2"
     style="display:inline" />
  <path
     d="m 208.99866,190.18594 h 2 l 7,8 12,9 11,5 16,4 77,1 v 48 l -4,17 -8,16 -11,13 -11,9 -16,8 -17,4 h -19 l -14,-3 -12,-5 -12,-7 -13,-13 -9,-14 -5,-13 -2,-10 v -51 l 16,-8 8,-9 z"
     fill="#f3c99f"
     id="path3" />
  <path
     d="m 267.99866,82.185943 h 21 l 12,4 10,6 8,7 7,10.999997 4,10 1,4 3,61 v 16 h -78 l -13,-4 -12,-7 -7,-7 -7,-10 -5,-14 -2,-15 -4,-3 -7,1 -2,3 -1,37 -4,10 -8,7 -3,1 -1,-1 -7,-49 v -9 l 4,-13 7,-11 9,-8 11,-5 8,-2 12,-2 34,-14.999997 z"
     fill="#2c2310"
     id="path4" />
  <path
     d="m 488.99866,401.18594 h 13 l 16,4 13,7 12,11 7,10 5,12 2,10 v 16 l -4,15 -6,11 -9,11 -11,8 -13,6 -9,2 h -19 l -14,-4 -13,-7 -9,-8 -9,-13 -5,-12 -2,-10 v -15 l 3,-12 8,-16 9,-10 11,-8 11,-5 z"
     id="path5" />
  <path
     d="m 510.99866,126.18594 5,1 3,1 -1,7 -14,43 -33,99 -14,43 -33,99 -5,16 -3,1 -17,-6 3,-10 15,-41 14,-38 16,-43 17,-46 18,-49 13,-35 15,-40 z"
     fill="#c29948"
     id="path8" />
  <path
     d="m 138.99866,387.18594 5,1 14,98 v 22 l -1,1 h -46 v -88 l 3,-12 7,-11 11,-8 z"
     fill="#fdfcfa"
     id="path11" />
  <path
     d="m 226.99866,343.18594 10,2 15,2 h 10 l 15,-2 11,-2 v 33 l -12,14 -18,22 -5,-4 -9,-11 -12,-14 -5,-7 z"
     fill="#d8b38c"
     id="path18" />
  <path
     d="m 255.99866,434.18594 4,1 24,16 -2,6 -14,26 -10,17 -3,-3 -14,-25 -10,-18 1,-4 15,-10 z"
     fill="#fdfcfb"
     id="path22" />
  <path
     d="m 208.99866,379.18594 3,1 4,6 12,14 11,14 7,8 -4,4 -27,18 h -2 l -8,-20 -7,-26 -1,-9 z"
     fill="#fdfcfa"
     id="path23" />
  <path
     d="m 302.99866,379.18594 5,2 10,8 -2,12 -6,21 -7,19 -3,3 -30,-20 v -3 l 11,-14 9,-10 9,-11 z"
     fill="#fdfcfa"
     id="path26" />
  <path
     d="m 372.79315,387.18594 7,1 8,4 7,6 -1,7 -14,38 -20,54 h -1 v -13 z"
     fill="#fdfbfa"
     id="path30" />
  <path
     d="m 392.99866,445.18594 7,1 12,4 1,3 -15,45 -1,2 -5,-1 -15,-5 -1,-4 16,-43 z"
     fill="#c29948"
     id="path37" />
  <path
     d="m 228.99866,286.18594 h 11 l 3,9 5,5 4,2 h 10 l 6,-3 4,-5 3,-8 h 11 l -1,9 -4,8 -4,5 -8,5 -7,2 h -9 l -11,-4 -8,-7 -4,-8 -1,-3 z"
     fill="#030301"
     id="path42" />
  <path
     d="m 226.99866,363.18594 h 12 l 9,4 7,8 2,5 v 30 l -4,-2 -9,-11 -12,-14 -5,-7 z"
     fill="#f3c99e"
     id="path43" />
  <path
     d="m 498.99866,440.18594 h 9 l 6,4 4,5 1,8 -3,7 -5,5 -2,1 h -11 l -6,-4 -3,-4 -1,-3 v -8 l 4,-7 4,-3 z"
     fill="#fdfbf9"
     id="path44" />
  <path
     d="m 207.99866,234.18594 9,1 6,5 2,5 -1,8 -5,6 -4,2 h -7 l -6,-3 -3,-4 -1,-3 v -7 l 3,-5 5,-4 z"
     fill="#070503"
     id="path45" />
  <path
     d="m 300.99866,234.18594 8,1 6,5 2,4 v 7 l -3,5 -4,4 -3,1 h -7 l -7,-4 -3,-6 v -7 l 4,-6 4,-3 z"
     fill="#060503"
     id="path46" />
  <path
     d="m 158.99866,232.18594 h 6 v 23 h -8 l -6,-5 -1,-3 v -7 l 3,-5 z"
     fill="#f0c69a"
     id="path50" />
  <path
     d="m 349.99866,232.18594 9,1 5,5 1,9 -4,6 -4,2 h -7 z"
     fill="#f0c79b"
     id="path51" />
  <path
     d="m 523.99866,90.185943 6,1 2,2 -7,19.999997 -7,-1 -1,-3 z"
     fill="#c29948"
     id="path52" />
  <path
     d="m 356.99866,499.18594 5,5 11,4 v 1 h -16 z"
     fill="#fdfbf9"
     id="path53" />
</svg>
